<?xml version="1.0" encoding="UTF-8"?>
<svg id="Layer_1" xmlns="http://www.w3.org/2000/svg" version="1.1" viewBox="0 0 841.89 595.28">
  <!-- Generator: Adobe Illustrator 30.7.0, SVG Export Plug-In . SVG Version: 2.1.4 Build 114)  -->
  <defs>
    <style>
      .st0 {
        fill: #fff;
      }

      .st1 {
        fill: #0c42bc;
      }
    </style>
  </defs>
  <path class="st0" d="M250.81,518.83c-29.09-2.42-49.69-18.48-66.66-40.6-7.57-10-14.54-20-22.12-30l-3.64-4.54v70.59h-53.63l6.97-213.6c12.72,0,25.15-.61,36.66-.61,36.96,0,64.23,6.06,64.23,55.75,0,13.03-2.73,26.06-9.39,38.18-3.64,7.27-10,13.03-16.66,21.21,17.27,17.57,34.24,36.66,53.63,53.32,8.79,7.58,19.69,11.51,31.21,11.51,6.67,0,13.63-1.21,20.6-3.64l-5.45,44.23c-12.12-.61-23.94-.91-35.75-1.82ZM151.73,373.71c8.18,0,18.78-9.39,18.78-17.88s-9.39-17.27-19.09-16.66c0,11.82.61,22.72.3,34.54ZM220.51,377.34c7.88-55.14,28.48-67.56,44.84-67.56,1.82,0,3.64.3,5.15.61,31.21,4.54,35.45,40.6,35.45,60.9,0,3.64,0,6.36-.3,9.09-1.21,18.48-12.42,73.62-47.57,73.62-2.12,0-4.85,0-6.97-.61-26.97-5.15-31.51-35.45-31.51-56.66,0-9.09.91-16.36.91-19.39ZM262.93,404.31c6.36,0,13.03-16.36,13.03-33.63,0-8.79-1.51-20-7.88-20-4.85,0-11.82,6.06-14.24,24.54-.61,3.64-.91,6.97-.91,10,0,10.91,3.33,18.79,10,19.09Z"/>
  <path class="st0" d="M301.4,488.23l27.27-43.02c11.51,10.6,22.72,14.85,32.42,14.85,15.45,0,26.36-11.21,26.36-23.33,0-22.42-10-21.21-31.81-28.18-20-6.36-26.06-22.42-26.06-38.48,0-23.03,9.39-46.96,33.02-60.29,11.51-6.36,25.45-8.79,40.3-8.79,23.63,0,49.69,6.67,68.17,21.51l-12.42,43.63c-17.57-12.73-32.42-17.57-45.14-17.57-9.39,0-19.69,9.39-19.69,18.18,0,5.15,4.24,10.91,11.82,13.33,33.02,10.3,46.05,33.93,43.93,59.08-6.06,70.59-71.5,75.14-90.59,75.14-28.78,0-45.45-13.94-57.57-26.06Z"/>
  <path class="st0" d="M592.92,462.78c-3.94-21.21-6.36-43.02-9.39-64.53-2.12-15.75-3.94-31.81-6.36-47.57-2.42-16.36-6.36-40.6-7.57-46.96l-76.65.91c-25.45,76.65-19.39,109.07-45.14,206.33,8.48.61,41.21.91,47.57.91h.61l3.94-16.97,7.57-31.51c4.24-.3-.61,0,28.78-.91l4.85,28.18,4.54,23.33h45.14l11.51-.3-9.39-50.9ZM514.4,414.61l9.7-30.3,6.97,30.3h-16.66Z"/>
  <path class="st0" d="M607.1,488.23l27.27-43.02c5.45,3.33,13.33,8.48,24.84,8.48s33.93-8.48,33.93-23.03c0-3.33-1.21-19.39-31.81-22.12-25.45-2.42-36.66-13.94-36.05-40.6.61-25.15,10-45.45,32.42-58.17,31.21-17.27,67.26-9.39,87.86-.61l-2.73,5.76c-8.18,18.18-15.75,34.84-19.69,42.72-3.64-1.82-7.57-4.24-14.54-4.24-19.69,0-19.09,8.18-19.09,9.7,0,3.33,1.21,10.6,14.54,14.85,33.02,10.3,48.17,33.93,48.17,61.2,0,70.59-68.47,75.14-87.56,75.14-28.78,0-43.63-16.97-57.57-26.06Z"/>
  <path class="st0" d="M580.26,282.98c-25.05-2.09-42.79-15.91-57.4-34.96-6.52-8.61-12.52-17.22-19.05-25.83l-3.13-3.91v60.79h-46.18l6-183.93c10.96,0,21.65-.52,31.57-.52,31.83,0,55.31,5.22,55.31,48,0,11.22-2.35,22.44-8.09,32.87-3.13,6.26-8.61,11.22-14.35,18.26,14.87,15.13,29.48,31.57,46.18,45.92,7.57,6.52,16.96,9.91,26.87,9.91,5.74,0,11.74-1.04,17.74-3.13l-4.7,38.09c-10.44-.52-20.61-.78-30.79-1.56ZM494.95,158.01c7.04,0,16.17-8.09,16.17-15.39s-8.09-14.87-16.44-14.35c0,10.17.52,19.57.26,29.74Z"/>
  <path class="st0" d="M117.27,93h36.73l6.97.27,3.22.27-.8,29.49c-.27,8.04-.27,15.82-.27,23.86v3.48l1.07,79.35.27,47.45-45.57,1.34h-3.75l1.88-172.38c0-2.95.27-8.31.27-13.14Z"/>
  <path class="st0" d="M175.97,277.98c-.27-5.9-.8-11.8-1.07-17.69l-.8-81.23c-.27-19.84-.27-39.94-.54-60.05-.27-11.26-1.07-16.08-1.07-26.54l51.47,1.61,45.57,89,2.14-45.31,1.07-33.51c0-5.63.27-4.29.27-11.8l19.03-1.07,25.74-.54.27,7.51c0,13.14-1.07,32.97-1.34,36.73-2.14,33.24-4.83,66.22-6.97,99.46-.27,5.36-.27,10.19-.27,15.82v23.59c-34.05-.27-41.02-.54-43.43-.54h-2.14l-41.02-80.69-.54,66.48v11.8c0,1.88,0,3.75-.27,6.7l-43.16.54c-2.68,0-2.14-.27-2.95-.27Z"/>
  <path class="st0" d="M329.04,231.34c-1.88-8.58-2.95-19.03-2.95-30.56,0-24.93,4.56-54.69,14.48-78.82,1.34-3.49,13.14-33.51,44.77-33.51h.54c20.91,0,31.9,9.65,42.36,19.57l-18.23,30.03c-.54-.54-3.48-3.49-9.38-3.49-2.14,0-4.56.27-7.51,1.34-6.43,1.88-12.06,6.7-14.21,13.94-3.49,11.8-5.09,23.59-5.09,35.39v1.61c.54,28.42,5.63,43.97,17.69,43.97,13.94,0,15.82-12.06,15.82-21.45,0-4.02-.27-7.24-.27-9.11l-16.35-.27v-2.68l.27-22.52c10.99-.27,7.51-.27,13.4-.27l39.94.27v6.17c.27,11.26.54,22.79,1.07,34.05l.27,5.09c0,50.94-40.75,59.25-56.56,59.25h-1.07c-19.03-.54-50.67-10.99-58.98-47.99Z"/>
  <path class="st0" d="M571.91,93h36.73l6.97.2,3.22.2-.8,22.06c-.27,6.02-.27,11.83-.27,17.85v2.61l1.07,59.35.27,35.49-45.57,1h-3.75l1.88-128.93c0-2.21.27-6.22.27-9.83Z"/>
  <path class="st0" d="M636.79,277.45v-18.77l-1.34-73.45-.54-93.29c.27,0,12.33-.27,25.74-.27,8.31,0,17.16.27,23.86.54,34.31,1.88,42.09,23.86,43.16,26.81,8.04,19.03,10.99,50.13,11.53,58.71.54,7.24,1.07,14.21,1.07,20.91,0,39.14-11.8,62.73-53.35,73.99-14.48,4.02-26.81,5.09-37.53,5.09-4.56,0-8.58-.27-12.6-.27ZM692.28,203.99c1.88-8.58,2.68-17.16,2.68-25.47,0-6.17-.54-12.33-1.07-18.23-2.68-21.45-17.96-22.79-21.71-22.79h-1.07l.27,65.41v1.88l-.27,22.25c16.08-3.48,20.64-19.84,21.18-23.06Z"/>
  <path class="st1" d="M202.6,521.9c14.86,9.58,31.15,17.7,48.67,20.9,15.77,2.88,32.21,1.5,46.8-5.4,7.73-3.65,14.73-8.95,20.08-15.63.84-1.05,1.03-2.51,0-3.54-.87-.87-2.69-1.06-3.54,0-9.19,11.48-22.88,18.05-37.23,20.27-15.93,2.46-32.22-1.04-46.91-7.23-8.86-3.73-17.28-8.48-25.35-13.69-2.71-1.75-5.22,2.58-2.52,4.32h0Z"/>
  <path class="st1" d="M220.09,321.35c8.11-13.63,23.01-22.23,38.58-24.18,9.15-1.15,18.46-.24,27.32,2.24,7.86,2.2,16.49,5.4,21.58,12.15,5.41,7.17,6.81,16.56,8.14,25.2.21,1.34,1.88,2.07,3.08,1.75,1.43-.39,1.95-1.74,1.75-3.08-1.3-8.39-2.77-17.17-7.35-24.5-5.04-8.06-13.41-12.31-22.18-15.22-17.93-5.96-38.21-5.63-54.95,3.68-8.28,4.6-15.43,11.27-20.28,19.44-1.65,2.77,2.67,5.29,4.32,2.52h0Z"/>
  <path class="st1" d="M610.72,361.17c-4.61-15.16.19-31.31,9.37-43.75,10.05-13.63,25.63-21.86,41.66-26.35,9.58-2.68,19.44-4.14,29.34-4.89,1.35-.1,2.5-1.08,2.5-2.5,0-1.27-1.15-2.6-2.5-2.5-18.42,1.39-37.15,5.09-53.33,14.37-15.02,8.62-27.04,22.39-31.82,39.22-2.56,9.03-2.79,18.71-.04,27.73.93,3.07,5.76,1.76,4.82-1.33h0Z"/>
  <path class="st1" d="M612.65,469.19c.05-6.9,2.67-13.71,7.18-18.94,2.27-2.64,4.94-4.87,7.98-6.56,3.66-2.04,7.77-3.14,11.88-3.84,2.29-.39,4.6-.63,6.91-.81,1.6-.13,3.97-.47,5.35.62,1.06.84,2.5,1.03,3.54,0,.87-.87,1.06-2.69,0-3.54-3.83-3.03-8.83-2.2-13.35-1.64-4.98.62-9.83,1.65-14.43,3.69-7.52,3.33-13.68,9.78-17,17.27-1.93,4.35-3.01,8.98-3.05,13.75-.02,3.22,4.98,3.22,5,0h0Z"/>
  <path class="st1" d="M255.29,317.65c-3.69,1.78-5.79,5.48-6.9,9.28-.56,1.9-.86,3.86-1.12,5.82-.33,2.49-.58,5.06.1,7.52,1.26,4.52,5.98,7.74,10.51,5.5,4.05-2.01,5.64-6.92,6.12-11.09.58-5.02-.72-10.28-3.53-14.48-.75-1.12-2.21-1.61-3.42-.9-1.11.65-1.65,2.29-.9,3.42,1.81,2.71,2.87,5.8,2.97,9.07.09,2.84-.35,6.38-2.35,8.57-.71.77-1.51,1.39-2.51,1.09-1.18-.35-1.85-1.63-2.13-2.73-.46-1.81-.15-3.83.09-5.65.18-1.32.43-2.68.76-3.99.75-2.95,2-5.75,4.83-7.12,1.22-.59,1.54-2.32.9-3.42-.73-1.24-2.2-1.49-3.42-.9h0Z"/>
  <path class="st1" d="M281.18,321.05c-1.07-2.25-3.84-2.34-5.76-1.19-2.12,1.28-3.06,3.55-3.86,5.79-1.52,4.23-2.16,9.63-.73,13.98.72,2.2,2.22,4.26,4.56,4.88s4.71-.29,6.55-1.8c3.33-2.73,4.77-7.44,4.98-11.6.24-4.9-1.42-9.66-4.5-13.43-.86-1.05-2.65-.89-3.54,0-1.03,1.03-.86,2.49,0,3.54,3.32,4.06,4.05,10.29,1.79,14.99-.55,1.15-1.25,2.24-2.31,2.98-.4.28-.92.52-1.25.54s-.64-.07-.95-.43c-.53-.62-.81-1.87-.93-2.89-.19-1.65-.18-3.38.04-5.03.24-1.83.75-3.68,1.49-5.37.33-.74.52-1.29,1.01-1.7-.15.12.5-.51.28-.2.11-.17.64.11-.11-.07-.32.06-.57-.05-.77-.34-.42-.44-.53-.48-.32-.12.58,1.22,2.33,1.54,3.42.9,1.25-.73,1.48-2.2.9-3.42h0Z"/>
  <path class="st1" d="M277.1,331.6c-2.61,1.66-5.25,3.75-5.45,7.09-.09,1.54.5,3.07,1.48,4.24,1.15,1.36,2.97,1.87,4.68,1.49s3.24-1.81,4.2-3.29c1.04-1.59,1.41-3.68.66-5.46s-2.46-3.17-4.46-3.16c-1.9.02-3.51,1.35-4,3.16-.28,1.03-.17,2.1.31,3.05.18.36.44.69.74.96.48.42.93.7,1.58.78.55.07,1.01-.03,1.5-.24,2.08-.88,3.28-3.26,2.64-5.45-.37-1.25-1.78-2.17-3.08-1.75s-2.14,1.73-1.75,3.08c.03.11.05.21.07.32l-.09-.66c.02.18.02.36,0,.54l.09-.66c-.03.18-.08.35-.15.52l.25-.6c-.05.1-.1.19-.15.29-.18.37.46-.47.09-.12s.4-.21.17-.11c-.11.05-.22.13-.33.18l.6-.25c-.07.03-.14.05-.21.07l1.93.25c-.34-.21.53.48.21.15-.14-.14.4.63.19.2l.25.6c-.05-.13-.09-.26-.11-.4l.09.66c-.02-.17-.01-.34,0-.51l-.09.66c.03-.18.08-.34.15-.51l-.25.6c.04-.08.08-.16.12-.24.17-.34-.48.51-.15.19s-.47.28-.24.16c.09-.05.17-.1.27-.15l-.6.25c.12-.05.24-.07.37-.1l-.66.09c.15-.02.3-.02.45,0l-.66-.09c.19.03.36.07.54.14l-.6-.25c.14.06.27.14.4.21.2.14.13.08-.23-.18.06.05.11.1.17.16.05.06.11.11.15.18-.27-.36-.33-.43-.19-.22.07.14.15.27.21.42l-.25-.6c.08.22.14.44.17.68l-.09-.66c.02.27.02.53-.01.8l.09-.66c-.06.36-.16.7-.3,1.03l.25-.6c-.12.27-.26.53-.43.78-.33.49.33-.36.02,0-.09.1-.18.21-.27.31-.19.2-.42.36-.6.55.33-.25.39-.3.18-.15l-.11.07c-.15.09-.31.17-.48.25l.6-.25c-.21.08-.41.14-.63.18l.66-.09c-.23.03-.46.03-.69,0l.66.09c-.16-.03-.3-.07-.45-.12l.6.25c-.14-.06-.27-.14-.41-.21-.32-.18.47.43.22.16-.05-.06-.11-.11-.16-.17-.15-.15-.18-.37.18.25-.04-.07-.09-.13-.13-.2-.09-.15-.17-.31-.24-.48l.25.6c-.13-.31-.21-.63-.26-.97l.09.66c-.04-.34-.04-.67,0-1.01l-.09.66c.04-.27.12-.53.22-.79l-.25.6c.08-.19.17-.38.28-.56.06-.11.13-.21.2-.32.06-.08.29-.4.03-.05s-.02.04.04-.04.14-.16.21-.23c.16-.17.33-.33.51-.48.08-.07.16-.14.24-.21.31-.26-.04.01-.15.11.16-.14.35-.26.52-.38.39-.27.79-.53,1.19-.78,1.1-.7,1.65-2.26.9-3.42-.71-1.1-2.24-1.65-3.42-.9h0Z"/>
  <path class="st1" d="M258.35,338.42c-.07-.34-.23-.67-.37-.98-.07-.15-.15-.28-.25-.41-.42-.58-.89-1.1-1.54-1.44-.31-.16-.64-.31-.97-.4s-.66-.09-1-.04-.61.16-.93.3c-.07.03-.14.06-.21.1-.43.22-.82.53-1.18.85s-.64.7-.92,1.08c-.17.24-.32.5-.44.77-.41.91-.67,1.81-.68,2.83s.27,2.1.8,3.01,1.78,1.48,2.82,1.15c.86-.28,1.73-.64,2.46-1.18.44-.33.88-.65,1.23-1.08.5-.61.79-1.11,1.08-1.84.06-.16.11-.32.15-.49.07-.35.14-.72.12-1.08-.03-.75-.21-1.35-.53-2.01-.21-.43-.53-.84-.86-1.18s-.75-.66-1.18-.87c-.65-.31-1.31-.53-2.04-.49-.54.03-.86.1-1.32.3s-.75.4-1.16.73c-.47.38-.73,1.19-.73,1.77,0,.61.27,1.35.73,1.77s1.1.76,1.77.73l.66-.09c.42-.12.79-.33,1.1-.64l.05-.04-.51.39c.1-.07.2-.13.31-.18l-.6.25c.09-.03.18-.06.27-.07l-.66.09c.13-.02.26-.02.39,0l-.66-.09c.15.02.3.07.44.13l-.6-.25c.17.08.32.17.47.28l-.51-.39c.17.13.31.28.44.45l-.39-.51c.11.15.21.32.29.49l-.25-.6c.07.17.12.35.15.54l-.09-.66c.02.15.02.29,0,.44l.09-.66c-.03.24-.1.47-.2.69l.25-.6c-.1.22-.22.42-.37.62l.39-.51c-.21.27-.46.51-.73.72l.51-.39c-.39.29-.81.53-1.26.72l.6-.25c-.21.09-.42.17-.64.23l2.82,1.15c-.08-.13-.14-.27-.2-.41l.25.6c-.11-.26-.18-.53-.22-.82l.09.66c-.04-.35-.04-.7,0-1.04l-.09.66c.05-.35.15-.69.28-1.01l-.25.6c.13-.3.29-.59.49-.85l-.39.51c.19-.24.4-.46.64-.65l-.51.39c.23-.17.47-.32.73-.43l-1.93.25c.07.02.14.04.21.07l-.6-.25c.16.07.31.15.45.25l-.51-.39c.14.11.26.23.37.36l-.39-.51c.1.14.19.28.26.44l-.25-.6c.05.12.08.23.11.35.13.59.63,1.19,1.15,1.49s1.33.45,1.93.25,1.19-.57,1.49-1.15c.32-.61.4-1.24.25-1.93h0Z"/>
  <path class="st1" d="M278.61,323.54c.09-.13.18-.25.27-.37l-.39.51c.47-.61,1.02-1.16,1.63-1.64l-.51.39c.52-.4,1.08-.75,1.67-1.03.29-.16.53-.37.7-.64.22-.24.37-.52.45-.85.1-.33.12-.66.04-1-.02-.33-.11-.64-.3-.93-.34-.53-.86-1-1.49-1.15l-.66-.09c-.45,0-.87.12-1.26.34-.91.43-1.73,1.03-2.49,1.68s-1.41,1.44-1.98,2.26c-.18.29-.28.6-.3.93-.07.33-.06.66.04,1,.16.58.61,1.21,1.15,1.49.58.31,1.28.46,1.93.25l.6-.25c.38-.22.67-.52.9-.9h0Z"/>
  <path class="st1" d="M459.44,358.74c-13.53-6.53-23.12-20.37-24.11-35.42-.12-1.77-2.07-3.27-3.76-2.16-2.72,1.79-5.45,3.59-8.17,5.38s-.29,5.94,2.52,4.32c2.46-1.41,4.68-3.23,6.51-5.4.87-1.03,1.01-2.52,0-3.54-.89-.89-2.66-1.04-3.54,0-1.58,1.87-3.37,3.4-5.49,4.62l2.52,4.32c2.72-1.79,5.45-3.59,8.17-5.38l-3.76-2.16c.85,12.95,7.2,25.38,17.21,33.66,2.88,2.39,6,4.45,9.38,6.08,1.22.59,2.7.33,3.42-.9.64-1.09.32-2.83-.9-3.42h0Z"/>
  <path class="st1" d="M462,323.24c-2.82-3.52-8.35-3.25-11.8-.88-4.13,2.84-5.41,7.94-6.21,12.6-.37,2.14-.66,4.42-.02,6.54.74,2.46,2.77,4.32,5.41,4.44,5.47.24,8.69-5.88,10.43-10.16.52-1.28.97-2.59,1.4-3.9.49-1.46.98-2.94,1.05-4.49.16-3.32-1.95-6.16-5.28-6.56-1.34-.16-2.5,1.26-2.5,2.5,0,1.48,1.15,2.34,2.5,2.5-.44-.05,0,.17-.11.05.44.48.16.2.12.13.19.3.18.3.12.15.3.75.14,1.53-.08,2.35-.48,1.8-1.13,3.58-1.8,5.32-.61,1.59-1.38,3.13-2.34,4.54-.79,1.16-1.93,2.48-3.31,2.62-.14.01-.44-.15-.52-.28-.05-.07-.23-.38-.03-.04-.08-.13-.16-.27-.22-.41.17.37-.12-.54-.15-.68-.09-.41.02.33-.02-.1-.01-.13-.02-.26-.03-.39-.02-.35-.01-.71,0-1.06s.05-.71.09-1.06c-.04.37,0-.05.02-.11.05-.29.1-.58.15-.87.54-3.09,1.13-6.64,3.39-8.88.53-.53.85-.74,1.69-1.12.39-.17-.28.1.12-.04.2-.07.41-.14.61-.19.17-.04.33-.08.5-.12.66-.16-.34-.03.33-.05.37,0,.74-.02,1.11.01.41.04-.34-.09.05.02.19.05.39.1.58.16.46.13.16.07.06.02.21.11.42.22.61.36-.11-.08-.24-.26.05.06.17.18.34.36.49.55.84,1.05,2.65.88,3.54,0,1.04-1.04.85-2.48,0-3.54h0Z"/>
  <path class="st1" d="M454.01,340.3c1.23-1.9,1.87-4.19,1.87-6.45,0-.79-.37-1.49-.99-1.96-.24-.22-.52-.37-.85-.45-.44-.12-.89-.12-1.33,0-.95.16-1.83.46-2.71.86-1.03.47-1.85,1.23-2.53,2.12s-.95,1.97-1.01,3.04c0,.16,0,.32.01.48.04.36.07.74.18,1.09.22.72.55,1.27,1.03,1.84.09.1.18.19.29.28.25.2.51.42.8.57.66.32,1.17.45,1.9.52.46.04.95-.03,1.39-.13.22-.05.42-.14.63-.23s.43-.17.62-.3c1.1-.73,1.82-1.85,1.87-3.19.02-.62-.16-1.24-.45-1.78s-.75-.96-1.26-1.32c-.36-.25-.79-.43-1.21-.55s-.89-.18-1.32-.14c-.32.03-.66.06-.96.17-.54.21-.86.36-1.3.76s-.81,1.02-.95,1.61c-.15.65-.09,1.34.25,1.93.3.52.9,1.01,1.49,1.15.64.15,1.36.11,1.93-.25.53-.34,1-.86,1.15-1.49.01-.06.03-.12.06-.19l-.25.6c.03-.07.07-.13.11-.19l-.39.51c.05-.06.1-.1.15-.15l-.51.39c.06-.04.12-.08.18-.11l-.6.25c.1-.04.19-.07.3-.08l-.66.09c.14-.02.28-.02.42,0l-.66-.09c.16.02.32.06.47.13l-.6-.25c.14.06.26.13.38.22l-.51-.39c.1.08.19.16.27.26l-.39-.51c.05.08.1.15.14.24l-.25-.6c.03.07.05.14.06.22l-.09-.66c.01.1.01.19,0,.29l.09-.66c-.02.11-.05.22-.09.33l.25-.6c-.04.1-.1.19-.16.28l.39-.51c-.08.1-.17.19-.26.27l.51-.39c-.13.1-.28.18-.43.25l.6-.25c-.16.06-.33.11-.5.14l.66-.09c-.21.03-.42.03-.64,0l.66.09c-.17-.03-.34-.07-.5-.14l.6.25c-.12-.06-.24-.12-.35-.2l.51.39c-.12-.09-.21-.19-.31-.31l.39.51c-.12-.16-.21-.32-.29-.5l.25.6c-.07-.18-.12-.37-.15-.56l.09.66c-.03-.27-.03-.54,0-.81l-.09.66c.04-.28.12-.54.22-.8l-.25.6c.11-.26.25-.49.42-.72l-.39.51c.19-.23.4-.44.63-.63l-.51.39c.35-.27.74-.49,1.15-.67l-.6.25c.63-.26,1.29-.43,1.96-.54l-3.16-2.41c0,.43-.03.87-.08,1.3l.09-.66c-.12.83-.34,1.64-.66,2.41l.25-.6c-.22.51-.48,1.01-.78,1.48-.34.53-.42,1.33-.25,1.93s.61,1.21,1.15,1.49c1.24.66,2.66.28,3.42-.9h0Z"/>
  <path class="st1" d="M330.52,375.24c7.85.51,15.53-3.44,19.96-9.88.77-1.11.21-2.77-.9-3.42-1.24-.72-2.65-.22-3.42.9s-1.82,2.27-3,3.28c-.59.51-.9.73-1.64,1.22s-1.46.88-2.22,1.25c-1.18.57-2.67,1.07-4.23,1.39-.39.08-.79.16-1.19.21.27-.03-.03,0-.13,0-.22.02-.45.04-.67.05-.85.05-1.7.05-2.55,0-1.35-.09-2.5,1.21-2.5,2.5,0,1.43,1.15,2.41,2.5,2.5h0Z"/>
  <path class="st1" d="M332.73,391.5c8.28,1.36,16.45-3.22,19.69-10.93.51-1.21-.55-2.8-1.75-3.08-1.46-.33-2.53.45-3.08,1.75.17-.41-.04.07-.08.15-.08.17-.17.35-.26.52-.18.34-.38.67-.59,1-.13.19-.26.38-.39.57-.25.37.07-.07-.1.14-.24.3-.5.59-.76.87s-.54.55-.82.82c-.14.13-.29.26-.43.38.01-.01-.5.41-.29.24.22-.18-.26.19-.3.22-.19.13-.38.27-.58.39-.33.21-.66.41-1,.6s-.69.36-1.04.53c-.41.2.11-.03-.15.07-.18.07-.36.14-.54.21-.73.26-1.47.47-2.23.63-.23.05-.46.08-.68.12.25-.04.2-.02-.02,0-.42.04-.85.07-1.27.08-.39,0-.77,0-1.16-.02-.19-.01-.39-.03-.58-.05-.55-.04.34.06-.26-.04-1.29-.21-2.75.33-3.08,1.75-.27,1.2.37,2.85,1.75,3.08h0Z"/>
  <path class="st1" d="M341.67,401.09c4.19,2.52,9.29,2.09,13.6.12s7.49-5.47,10.57-8.83c.91-1,.98-2.55,0-3.54-.92-.92-2.62-1-3.54,0-2.59,2.83-5.22,5.76-8.65,7.6-2.9,1.55-6.56,2.07-9.46.33s-5.28,2.66-2.52,4.32h0Z"/>
  <path class="st1" d="M516.32,317.39c-6.25-1.08-11.51,3.2-13.66,8.83-1.13,2.95-1.41,6.2-1.44,9.34s.11,6.07,1.25,8.87,3.42,5.26,6.43,6.18,5.91-.16,8.11-2.19c4.2-3.88,6.06-10.4,5.93-15.96-.07-3.32-.84-6.56-2.23-9.58s-3.82-6.44-7.54-6.22c-3.2.19-3.22,5.19,0,5,1.62-.09,2.67,2.53,3.22,3.74.8,1.77,1.3,3.75,1.47,5.69.36,4.2-.55,8.42-2.87,11.96-.85,1.31-2.17,2.89-3.87,2.88s-2.99-1.34-3.73-2.69c-1.02-1.87-1.14-4.14-1.18-6.22-.04-2.22,0-4.49.45-6.68.78-3.76,3.67-8.94,8.32-8.13,1.33.23,2.69-.35,3.08-1.75.33-1.2-.41-2.84-1.75-3.08h0Z"/>
  <path class="st1" d="M549.62,318.98c-1.87-2.12-5-2.69-7.63-1.86s-4.75,3.17-5.89,5.74c-2.42,5.47-2.4,12.26.5,17.55,2.72,4.96,9.04,8.36,14.14,4.58,4.29-3.17,5.78-9.22,5.24-14.31-.63-5.99-3.66-11.39-8.6-14.87-1.1-.78-2.78-.2-3.42.9-.73,1.25-.21,2.64.9,3.42,5.48,3.87,8.13,12.37,4.87,18.45-.73,1.37-1.86,2.84-3.52,3.05-1.53.19-2.93-.8-3.93-1.85-2.8-2.93-3.41-7.73-2.66-11.56.4-2.01,1.06-4.3,2.69-5.68,1.11-.94,2.77-1.17,3.77-.03.89,1.01,2.62.91,3.54,0,1.01-1.01.9-2.52,0-3.54h0Z"/>
  <path class="st1" d="M543.53,328.65c-.82,1.01-1.66,2.04-2.2,3.23-.64,1.44-1.04,3.12-.47,4.66.49,1.33,1.42,2.59,2.73,3.2.72.34,1.48.59,2.29.52,1.05-.09,1.92-.46,2.71-1.15.52-.46.93-1.09,1.26-1.7.39-.72.74-1.47.98-2.24.5-1.58.44-3.36-.41-4.82s-2.43-2.52-4.13-2.43c-1.79.09-3.21,1.33-3.77,2.99-.29.87-.22,1.81.13,2.64.52,1.22,1.67,2.01,3.01,2.04,1,.02,2.02-.42,2.72-1.13.92-.93,1.19-2.13.95-3.39-.11-.59-.65-1.2-1.15-1.49-.54-.31-1.33-.45-1.93-.25s-1.19.57-1.49,1.15c-.33.62-.38,1.23-.25,1.93l.02.08-.09-.66c0,.08,0,.16,0,.24l.09-.66c-.01.08-.03.15-.06.23l.25-.6c-.04.1-.1.19-.16.28l.39-.51c-.07.09-.15.16-.23.23l.51-.39c-.11.08-.23.15-.36.21l.6-.25c-.1.04-.21.06-.31.08l.66-.09c-.08,0-.16,0-.24,0l.66.09c-.08-.01-.15-.03-.23-.06l.6.25c-.05-.02-.1-.05-.15-.08l.51.39c-.06-.05-.11-.11-.16-.17l.39.51c-.04-.06-.08-.12-.11-.19l.25.6c-.05-.11-.08-.23-.09-.35l.09.66c-.01-.12,0-.24.01-.37l-.09.66c.02-.13.06-.25.1-.37l-.25.6c.07-.17.16-.33.28-.47l-.39.51c.09-.1.18-.19.28-.28l-.51.39c.13-.1.26-.17.4-.24l-.6.25c.1-.04.2-.06.3-.08l-.66.09c.15-.02.3-.01.45,0l-.66-.09c.16.03.31.07.46.13l-.6-.25c.18.08.34.18.49.3l-.51-.39c.15.13.29.27.42.42l-.39-.51c.16.22.3.45.4.7l-.25-.6c.09.22.15.44.18.68l-.09-.66c.04.33.03.65,0,.98l.09-.66c-.08.51-.23.99-.42,1.47l.25-.6c-.28.65-.6,1.32-1.03,1.88l.39-.51c-.12.14-.24.27-.38.39l.51-.39c-.13.1-.26.18-.41.25l.6-.25c-.16.07-.32.11-.49.13l.66-.09c-.14.01-.28.01-.42,0l.66.09c-.2-.03-.39-.08-.57-.16l.6.25c-.22-.1-.42-.22-.61-.36l.51.39c-.22-.18-.41-.37-.58-.59l.39.51c-.15-.2-.27-.41-.38-.64l.25.6c-.1-.23-.16-.46-.2-.71l.09.66c-.03-.28-.03-.56,0-.85l-.09.66c.06-.45.19-.88.37-1.31l-.25.6c.33-.75.8-1.43,1.3-2.09l-.39.51c.17-.22.34-.43.51-.64.43-.53.73-1.05.73-1.77,0-.61-.27-1.35-.73-1.77s-1.1-.76-1.77-.73c-.62.03-1.36.23-1.77.73h0Z"/>
  <path class="st1" d="M505.16,333.37c-1.27,2.35-1.97,5.06-1.83,7.75.07,1.34.32,2.76,1.07,3.9.92,1.4,2.24,2.22,3.9,2.38,1.55.15,3.16-.61,3.97-1.96s.7-2.82.7-4.28c0-1.18.07-2.4-.03-3.58-.15-1.82-1-3.57-2.93-4.03-1.13-.27-2.38,0-3.22.83-.6.59-.91,1.43-1.06,2.24-.32,1.73-.07,3.49.83,5.02.44.76,1.28,1.24,2.16,1.24.81,0,1.81-.46,2.16-1.24.5-1.12.73-2.21.57-3.43s-.67-2.2-1.45-3.13c-.84-1.01-2.68-.93-3.54,0-.98,1.07-.9,2.46,0,3.54-.49-.58-.04.05.08.22-.14-.36-.18-.44-.12-.26.02.07.05.14.06.21.03.1.09.53.04.09s-.01.03,0,.1c0,.12-.07.52.02.1s0,0-.03.09c-.05.18-.24.61.05-.05h4.32c-.05-.09-.1-.18-.15-.27-.11-.19-.02-.3.07.18-.03-.17-.12-.34-.16-.51-.02-.07-.03-.15-.05-.22-.1-.41.03.15.02.21.03-.21-.03-.47-.02-.69,0-.07.02-.16.02-.23.03.53-.08.42-.02.21.03-.11.06-.52.16-.59-.08.06-.21.43-.29.53-.19.25-1.24.72-.93.65.26-.06-.48.06-.4.05.41-.04-.52-.08-.29-.03.22.04-.42-.2-.51-.27-.07-.06-.47-.62-.35-.37s-.09-.28-.09-.26c0-.02.07.28.08.29-.03-.02-.05-.66-.03-.21,0,.08,0,.15.01.23,0,.25,0,.5,0,.75,0,.93,0,1.85,0,2.78,0,.44.01.87,0,1.31,0,.1-.02.21-.01.31,0,.26.04-.28.05-.28-.03.06-.05.22-.06.29-.07.42.19-.36.05-.12-.16.28.36-.38.15-.18-.18.16.28-.23.28-.2,0-.01-.18.13-.2.12-.01,0,.64-.25.27-.13s.68-.07.13-.03c-.06,0-.12-.02-.18,0,.44.07.56.08.36.04-.06-.01-.12-.03-.18-.05-.08-.02-.32-.12.06.04s.11.05.02,0c-.43-.26.31.37.06.06-.04-.05-.15-.19-.2-.22.06.04.32.5.13.15-.03-.06-.07-.13-.11-.19-.22-.41.07,0,.04.13.03-.11-.13-.38-.16-.5-.02-.1-.13-.79-.09-.34.05.43-.01-.15-.02-.27-.01-.22-.02-.44-.02-.65,0-.5.12-1.02.08-1.51,0,0-.08.53-.03.25.02-.14.04-.28.07-.42.05-.25.1-.5.16-.74.12-.46.26-.92.43-1.37.04-.1.09-.21.12-.31-.04.13-.19.43-.05.13.12-.25.25-.5.38-.75.62-1.15.32-2.78-.9-3.42s-2.76-.33-3.42.9h0Z"/>
  <path class="st1" d="M536.77,337.72c.76,1.86,1.92,3.36,3.63,4.45,1.46.92,3.34,1.46,5.08,1.32,3.72-.31,7.01-2.91,7.95-6.57.33-1.26-.42-2.77-1.75-3.08s-2.73.39-3.08,1.75c-.07.27-.2.53-.26.79.12-.54.08-.21-.03,0-.07.12-.14.24-.21.36-.03.05-.17.34-.23.35.1-.01.35-.42.03-.05-.2.23-.42.44-.65.65-.24.23,0-.03.11-.08-.12.05-.3.21-.41.28-.08.05-.67.45-.73.4.05.03.55-.21.06-.03-.13.05-.26.09-.4.13-.16.04-.32.08-.49.11-.46.1.4-.02.09-.01-.29,0-.56.03-.85,0-.43-.03-.1-.08.07.02-.09-.05-.31-.06-.42-.09-.29-.07-.6-.24-.89-.29.24.04.39.17.05,0-.13-.07-.25-.13-.37-.21s-.24-.15-.36-.23c-.38-.26-.01-.12.03.03-.04-.15-.51-.47-.62-.59-.06-.06-.11-.13-.17-.19-.12-.14-.08-.08.13.17-.1-.05-.19-.27-.24-.35-.08-.12-.15-.24-.22-.37-.08-.14-.29-.64-.03-.02-.26-.63-.54-1.14-1.15-1.49-.54-.31-1.33-.45-1.93-.25-1.16.38-2.28,1.78-1.75,3.08h0Z"/>
  <path class="st1" d="M508.81,368.44c5.76,6.96,16.02,7.75,24.17,5.35,4.48-1.32,8.69-3.58,12.38-6.42,1.89-1.45,3.66-3.04,5.27-4.81s2.94-3.82,4.38-5.79c.11-.15.03-.15.28-.24.12-.04.5-.06.65,0,.27.09.34.12.19.57-.07.21-.21.36-.37.51.06-.05-.26-.05-.09.03-.58-.28-.68-.72-.55-1.12.98-3.07-3.85-4.39-4.82-1.33-.86,2.7.61,5.72,3.14,6.91,2.7,1.26,5.82,0,7.11-2.65s.56-5.75-2.02-7.23c-2.26-1.3-5.45-.85-7.18,1.12-.92,1.05-1.57,2.36-2.42,3.48-.77,1.02-1.62,1.99-2.5,2.91-1.83,1.92-3.85,3.63-6.07,5.09-4.22,2.77-9.07,4.81-14.15,5.14s-10.44-.93-13.86-5.06c-.86-1.04-2.64-.89-3.54,0-1.03,1.03-.86,2.49,0,3.54h0Z"/>
  <path class="st1" d="M582,385.18c5.02,0,8.52,4.98,10.38,9.1s2.49,9.06,2.03,13.69-2.21,9.16-4.92,12.94c-1.45,2.03-3.33,3.93-5.43,5.27-2.63,1.67-5.49,1.98-8.55,1.95-1.12-.01-3.08.26-4.11-.34s-1.38-2.52-1.66-3.62c-.86-3.37-.72-6.86.25-10.19.49-1.68-1.26-3.8-3.08-3.08-3.83,1.53-7.03,4.27-8.94,7.96-1.63,3.16-3.73,9.87.35,12.08,3.89,2.1,9.16.15,12.28-2.45,3.37-2.81,5.01-7.4,4.79-11.71s-1.96-9.24-6.31-10.59c-5.02-1.56-7.99,3.59-9.67,7.42-.93,2.14-2.44,5.14-1.74,7.52.62,2.11,2.68,3.15,4.77,3.1,3.55-.08,8.41-2.55,9.39-6.2,1.44-5.37-4.7-9.05-9.26-7.01-5.24,2.33-5.75,8.49-5.51,13.47.16,3.2,5.16,3.22,5,0-.13-2.64-.47-5.93,1.44-8.06.49-.55,1.26-1.13,1.99-1.1.64.02,1.48.55,1.56,1.09.07.5-.59,1.07-1.14,1.43-.89.6-1.98,1.12-3.04,1.32-.25.05-.8.1-.79.05,0,0,.17.14.18.16.4.65.11.49.36,0,.32-.65.45-1.48.69-2.16.29-.79.61-1.57.99-2.33.61-1.24,2.07-5.04,3.89-3.61s2.23,4.19,2.22,6.3c-.03,4.89-3.76,9.6-8.98,9.13-.15-.01-.46-.17-.58-.08.53-.38,0,1.2.2-.06.09-.61.03-1.24.14-1.85.23-1.34.69-2.62,1.36-3.8,1.27-2.25,3.26-4.21,5.69-5.18l-3.08-3.08c-1.1,3.76-1.26,7.69-.54,11.53.66,3.5,2.04,7.58,5.88,8.56,1.67.43,3.51.37,5.22.38,2.04.01,4.12-.11,6.12-.6,3.43-.84,6.41-2.94,8.87-5.41,8.39-8.43,11.12-22.07,6.9-33.16-2.51-6.61-7.83-13.78-15.62-13.77-3.22,0-3.22,5,0,5h0Z"/>
  <path class="st1" d="M463.45,413.11c1.2,2.44.63,5.59.72,8.21.09,2.78.38,5.61,1.09,8.31,1.42,5.36,4.77,10.07,10.15,11.95s11.63.42,15.81-3.33c4.19-3.77,6.19-9.8,5.57-15.35-.31-2.8-1.12-5.8-3.44-7.61-2.51-1.96-5.95-1.48-8.03.86-2.3,2.59-2.29,6.04-.97,9.08,1.16,2.67,3.16,5.64,5.82,7.01s5.98.57,7.62-2.08c1.43-2.31,1.51-5.47,1.19-8.09-.39-3.22-2.23-6.47-5.67-7.13-3.04-.58-5.55,1.35-6.78,4-.68,1.48-1.39,3.31-1.25,4.96.16,1.87,1.56,3.19,3.32,3.67,3.26.88,7.03-1.24,8.21-4.32s-.42-6.77-3.59-7.72c-1.65-.49-3.48.04-4.76,1.12-1.48,1.25-1.93,2.92-1.67,4.79.19,1.34,1.89,2.07,3.08,1.75,1.44-.4,1.93-1.73,1.75-3.08.01.09.06.42-.03.48-.08.05-.11-.11.06-.1.09,0,.12-.2.36-.18-.31-.03.09.33.14.46.31.91-.72,1.8-1.8,1.96-.07,0-.51.02-.41.01-.64.05-.06-.17.06.13.02.04.34.6.24.62.18-.05.56-1.9.68-2.19.43-.98,1.05-2.01,2.11-1.13,1.25,1.04,1.13,3.3,1.08,4.75-.02.68-.09,1.22-.28,1.88-.13.44-.32.91-.56,1.05-.9.51-2.32-1.35-2.86-2.11-.94-1.35-2.24-3.19-2.01-4.95.1-.73.83-2.03,1.63-1.75,1.23.42,1.59,2.73,1.75,3.78.5,3.24-.25,6.68-2,9.44-3.59,5.67-12.12,7.02-16.77,1.89-2.43-2.68-3.32-6.57-3.65-10.08-.42-4.5.49-9.32-1.57-13.5-.6-1.21-2.31-1.54-3.42-.9-1.23.72-1.5,2.2-.9,3.42h0Z"/>
  <path class="st1" d="M156.83,399.49c11.5,5.43,25,.61,32.54-9.08,8.39-10.79,9.57-24.96,7.89-38.08-.27-2.14-.6-4.27-.98-6.4-.32-1.78-.39-4.35-1.7-5.74-1.56-1.66-4.42-1.1-4.96,1.2-.23.96.02,2.06.72,2.77.95.95,2.13.89,3.28.39,1.24-.54,1.52-2.36.9-3.42-.75-1.28-2.18-1.44-3.42-.9l-.14.06h2.52l-.11-.06.9.9-.07-.15.34,1.26-.21.76-1.49,1.15.17-.05h-1.33l.26.08-1.1-.64-.17-.37c.05.18.09.35.12.53.07.31.12.63.19.95.14.71.27,1.42.4,2.14.27,1.51.52,3.02.74,4.53.42,2.88.69,5.79.8,8.69.19,5.32-.23,10.63-1.71,15.76-2.55,8.8-8.38,17.01-17.4,19.92-4.69,1.51-9.93,1.62-14.45-.52-1.22-.58-2.7-.34-3.42.9-.64,1.09-.33,2.84.9,3.42h0Z"/>
  <path class="st1" d="M157.07,307.26c-2.64,4.07-4.06,8.89-4.1,13.74-.03,4.28.79,10.47,4.9,12.85,4.48,2.59,9.73-.52,11.66-4.79s2.13-9,1.45-13.43c-.73-4.74-3.11-9.12-7.18-11.77-2.7-1.76-5.21,2.56-2.52,4.32,5.05,3.3,5.76,10.64,4.59,16.05-.34,1.59-.84,3.27-2.02,4.45-.76.76-2.04,1.38-3.14,1.02-1.21-.41-1.7-2.03-2.01-3.13-.5-1.75-.73-3.54-.73-5.36,0-4.08,1.2-8,3.41-11.42,1.76-2.71-2.57-5.22-4.32-2.52h0Z"/>
  <path class="st1" d="M163.56,324.54c-.87-1.9-3.24-2.52-5.13-2.05-1.99.5-3.6,2.31-3.49,4.42s1.84,4.06,3.97,4.52,4.57-.49,5.52-2.61c.54-1.22.68-2.42.45-3.74-.19-1.07-.79-2.14-1.58-2.89s-2.12-1.04-3.03-.39c-.85.6-1.47,1.34-1.77,2.36-.23.79-.23,1.77.05,2.55.46,1.26,1.48,2.53,2.96,2.53,1.07,0,2.05-.71,2.85-1.35,1.24-1,2.04-2.49,2.17-4.07.16-1.86-1.11-3.62-2.85-4.19-3.19-1.06-6.74,2.3-5.73,5.53.48,1.51,1.79,2.7,3.34,3.05,1.35.31,2.92.17,4.07-.67.89-.65,1.51-1.45,1.86-2.51.29-.89.25-1.82.09-2.72-.29-1.54-1.45-3.12-2.89-3.78-.63-.29-1.24-.44-1.93-.25-.58.16-1.21.61-1.49,1.15-.58,1.1-.37,2.84.9,3.42.21.1.41.21.59.36l-.51-.39c.18.15.34.31.49.49l-.39-.51c.18.24.33.5.46.77l-.25-.6c.11.28.19.56.23.86l-.09-.66c.02.23.02.45,0,.68l.09-.66c-.03.23-.09.44-.17.65l.25-.6c-.08.18-.17.35-.29.51l.39-.51c-.11.14-.23.26-.36.37l.51-.39c-.16.12-.33.22-.52.3l.6-.25c-.19.07-.38.12-.58.16l.66-.09c-.26.03-.52.04-.78,0l.66.09c-.23-.03-.45-.09-.67-.17l.6.25c-.21-.09-.4-.2-.58-.34l.51.39c-.13-.11-.24-.22-.34-.36l.39.51c-.08-.12-.15-.23-.21-.36l.25.6c-.06-.14-.09-.27-.12-.42l.09.66c-.02-.15-.02-.29,0-.43l-.09.66c.02-.14.06-.28.11-.41l-.25.6c.07-.16.15-.31.26-.45l-.39.51c.13-.16.27-.31.43-.44l-.51.39c.19-.15.39-.26.61-.36l-.6.25c.16-.06.33-.11.5-.14l-.66.09c.17-.02.33-.03.5,0l-.66-.09c.14.02.27.06.39.11l-.6-.25c.1.05.2.1.29.17l-.51-.39c.12.1.23.21.33.34l-.39-.51c.07.11.14.22.19.34l-.25-.6c.06.15.1.29.12.45l-.09-.66c.02.19.02.37,0,.56l.09-.66c-.04.23-.11.44-.19.66l.25-.6c-.13.29-.3.56-.49.81l.39-.51c-.23.29-.49.54-.78.77l.51-.39c-.29.22-.6.4-.94.55l.6-.25-.1.04,1.93.25-.08-.06.51.39c-.1-.08-.18-.17-.26-.27l.39.51c-.07-.1-.13-.21-.19-.33l.25.6c-.06-.15-.1-.3-.13-.46l.09.66c-.02-.19-.02-.38,0-.57l-.09.66c.03-.16.07-.31.13-.45l-.25.6c.06-.11.12-.22.19-.32l-.39.51c.08-.1.17-.18.27-.27l-.51.39.08-.06-3.03-.39c.12.11.23.23.33.36l-.39-.51c.16.21.28.43.39.67l-.25-.6c.11.28.19.56.23.85l-.09-.66c.04.33.04.65,0,.98l.09-.66c-.04.26-.11.5-.2.74l.25-.6c-.09.21-.2.4-.33.58l.39-.51c-.14.18-.29.33-.47.48l.51-.39c-.15.11-.31.21-.49.29l.6-.25c-.17.07-.35.12-.53.15l.66-.09c-.25.03-.49.03-.74,0l.66.09c-.25-.04-.49-.11-.72-.2l.6.25c-.23-.1-.44-.23-.65-.38l.51.39c-.17-.14-.32-.28-.46-.45l.39.51c-.13-.17-.23-.34-.32-.54l.25.6c-.05-.14-.09-.28-.12-.43l.09.66c-.02-.18-.03-.36,0-.54l-.09.66c.02-.13.05-.26.1-.38l-.25.6c.06-.14.14-.27.23-.4l-.39.51c.11-.14.24-.27.38-.38l-.51.39c.17-.13.35-.23.55-.31l-.6.25c.23-.09.46-.15.7-.19l-.66.09c.21-.02.42-.03.63,0l-.66-.09c.18.03.35.07.51.13l-.6-.25c.14.06.26.13.38.22l-.51-.39c.1.08.18.17.26.26l-.39-.51c.08.11.14.22.2.34.25.54.95,1,1.49,1.15.6.16,1.4.09,1.93-.25s1-.86,1.15-1.49c.16-.69.04-1.28-.25-1.93h0Z"/>
  <path class="st1" d="M158.78,325.68c.4.76.99,1.31,1.67,1.8.26.19.54.31.83.43s.59.25.92.31l.66.09c.34.01.67-.06.96-.22.21-.06.4-.17.55-.32.27-.18.49-.41.64-.7.28-.38.54-.78.75-1.2.19-.38.36-.78.5-1.18s.18-.83.23-1.25c.09-.82-.14-1.68-.53-2.39-.14-.25-.34-.48-.52-.7-.05-.07-.11-.13-.17-.19-.27-.25-.57-.49-.9-.66-.3-.15-.66-.32-1-.38-.37-.07-.77-.14-1.15-.12-.82.04-1.46.23-2.2.58-.16.07-.31.16-.45.26-.31.22-.63.45-.89.73-.58.64-.94,1.33-1.24,2.14-.24.67-.32,1.4-.38,2.1-.04.55-.03,1.1-.02,1.64.02.65.27,1.3.73,1.77.43.43,1.15.76,1.77.73s1.32-.24,1.77-.73.75-1.1.73-1.77-.03-1.38.06-2.07l-.09.66c.06-.42.16-.82.32-1.21l-.25.6c.11-.25.24-.48.4-.7l-.39.51c.12-.16.26-.3.42-.42l-.51.39c.19-.15.39-.26.61-.36l-.6.25c.22-.09.44-.15.67-.19l-.66.09c.19-.02.38-.03.57,0l-.66-.09c.15.02.29.06.44.11l-.6-.25c.12.05.24.12.35.2l-.51-.39c.11.09.2.18.29.29l-.39-.51c.08.11.14.22.2.34l-.25-.6c.06.14.09.27.12.42l-.09-.66c.02.19.02.38,0,.57l.09-.66c-.04.32-.14.62-.26.91l.25-.6c-.23.52-.53,1-.87,1.46l2.82-1.15c-.22-.04-.42-.1-.62-.18l.6.25c-.2-.09-.39-.2-.56-.33l.51.39c-.19-.15-.36-.31-.51-.5l.39.51c-.09-.12-.17-.25-.24-.38-.29-.54-.91-.99-1.49-1.15s-1.4-.09-1.93.25-1,.86-1.15,1.49c-.15.67-.07,1.31.25,1.93h0Z"/>
  <path class="st1" d="M160.17,326.22c3.22,0,3.22-5,0-5s-3.22,5,0,5h0Z"/>
  <path class="st1" d="M135.3,305.19c-2.9-.9-6.01.31-7.96,2.54-2.17,2.49-2.68,5.82-2.6,9.02.15,5.51.53,12.22,4.66,16.37,3.41,3.42,9.8,4.47,13.43.8,2.26-2.29,2.38-5.59,2.46-8.61.09-3.29.07-6.63-.69-9.86-1.56-6.57-7.25-12.29-14.38-11.08-1.33.22-2.08,1.87-1.75,3.08.39,1.41,1.74,1.97,3.08,1.75,3.67-.62,6.79,3.02,7.82,6.13.74,2.24.94,4.55.97,6.89s.26,4.85-.41,7c-.12.4-.3.8-.56,1.13.18-.22-.54.45-.3.28-.52.38-1.11.54-1.49.58-1.42.15-2.77-.22-3.98-1.06-2.93-2.04-3.41-6.74-3.66-10.1-.19-2.47-.58-5.25.32-7.62.57-1.5,2.07-2.93,3.72-2.42,3.08.96,4.4-3.86,1.33-4.82h0Z"/>
  <path class="st1" d="M137.19,323.41c-1.02-.42-2.32-.36-3.33.04-1.23.49-2.22,1.25-2.94,2.37-1.33,2.06-.86,4.94,1.02,6.51s4.58,2.11,6.65.69,2.87-3.74,2.46-6.13c-.46-2.63-3.14-4.75-5.82-3.94-1.23.37-2.35,1.24-2.94,2.39-.7,1.38-.68,2.97.08,4.32,1.34,2.38,4.59,3.27,6.93,1.86,2.12-1.28,3.31-4.16,2.41-6.53-.61-1.62-1.76-2.79-3.37-3.43-1.27-.51-2.88-.38-4.03.37-1.07.7-1.9,1.84-2.13,3.11-.26,1.47.03,3.11,1.22,4.13.51.44,1.07.73,1.77.73.61,0,1.35-.27,1.77-.73.86-.93,1.06-2.63,0-3.54-.1-.09-.19-.18-.27-.29l.39.51c-.07-.11-.14-.22-.19-.33l.25.6c-.06-.15-.1-.29-.12-.45l.09.66c-.03-.21-.02-.42,0-.63l-.09.66c.04-.22.1-.42.18-.62l-.25.6c.09-.2.2-.38.33-.56l-.39.51c.12-.15.25-.28.4-.39l-.51.39c.13-.09.27-.17.42-.24l-.6.25c.14-.05.28-.09.43-.12l-.66.09c.23-.03.45-.03.68,0l-.66-.09c.23.04.44.1.65.19l-.6-.25c.21.1.41.21.59.35l-.51-.39c.21.17.4.35.57.56l-.39-.51c.17.21.3.44.42.69l-.25-.6c.1.25.17.5.21.77l-.09-.66c.03.26.03.52,0,.79l.09-.66c-.05.3-.13.58-.24.85l.25-.6c-.11.24-.24.46-.4.68l.39-.51c-.16.21-.34.39-.55.55l.51-.39c-.19.14-.38.25-.59.34l.6-.25c-.18.07-.36.12-.55.15l.66-.09c-.22.03-.43.03-.65,0l.66.09c-.25-.04-.49-.11-.72-.2l.6.25c-.2-.09-.39-.2-.57-.33l.51.39c-.17-.14-.33-.28-.47-.45l.39.51c-.13-.17-.24-.35-.32-.55l.25.6c-.07-.18-.11-.35-.14-.54l.09.66c-.01-.15-.01-.3,0-.46l-.09.66c.03-.18.08-.35.15-.52l-.25.6c.08-.17.17-.32.28-.47l-.39.51c.14-.17.29-.31.46-.45l-.51.39c.15-.11.3-.2.47-.28l-.6.25c.2-.08.39-.14.6-.17l-.66.09c.15-.01.29-.01.44,0l-.66-.09c.15.02.29.06.43.12l-.6-.25c.17.08.31.17.46.28l-.51-.39c.19.16.36.33.51.52l-.39-.51c.14.19.25.39.35.6l-.25-.6c.11.27.18.55.23.84l-.09-.66c.04.32.04.64,0,.96l.09-.66c-.05.32-.13.63-.25.93l.25-.6c-.12.27-.26.51-.44.74l.39-.51c-.15.18-.31.34-.49.49l.51-.39c-.19.14-.39.26-.6.35l.6-.25c-.22.09-.44.15-.68.18l.66-.09c-.26.03-.52.03-.79,0l.66.09c-.29-.04-.58-.12-.85-.23l.6.25c-.27-.12-.53-.27-.77-.44l.51.39c-.21-.16-.39-.35-.56-.55l.39.51c-.14-.19-.26-.38-.36-.59l.25.6c-.09-.22-.15-.44-.19-.67l.09.66c-.02-.21-.02-.42,0-.63l-.09.66c.04-.24.1-.47.2-.69l-.25.6c.1-.22.23-.42.37-.62l-.39.51c.17-.22.37-.41.58-.58l-.51.39c.22-.17.45-.3.71-.42l-.6.25c.25-.1.51-.17.78-.21l-.66.09c.21-.02.41-.02.62,0l-.66-.09c.21.03.41.09.61.17.56.23,1.43.04,1.93-.25s1.01-.9,1.15-1.49c.15-.64.11-1.36-.25-1.93l-.39-.51c-.31-.31-.68-.52-1.1-.64h0Z"/>
  <path class="st1" d="M160.77,307.61c0-.14,0-.27,0-.41l-.09.66c.03-.2.08-.39.15-.57l-.25.6c.08-.2.19-.38.32-.55l-.39.51c.14-.18.3-.34.48-.48l-.51.39c.18-.14.37-.25.58-.34l-.6.25c.18-.07.37-.13.57-.15l-.66.09c.17-.02.35-.02.52,0l-.66-.09h.04c.33.11.66.12,1,.05.33-.02.64-.11.93-.3.29-.16.53-.37.7-.64.22-.24.37-.52.45-.85l.09-.66c0-.45-.12-.87-.34-1.26l-.39-.51c-.31-.31-.68-.52-1.1-.64-.4-.06-.79-.14-1.19-.1-.38.04-.8.08-1.17.21s-.71.27-1.03.46-.64.44-.93.71-.52.59-.74.9c-.1.14-.19.29-.26.45-.15.34-.34.71-.4,1.09-.05.29-.1.59-.12.89,0,.1,0,.2,0,.3-.01.34.06.67.22.96.1.31.27.58.52.8.23.24.49.42.8.52.3.16.62.23.96.22l.66-.09c.42-.12.79-.33,1.1-.64.43-.47.78-1.11.73-1.77h0Z"/>
  <path class="st1" d="M731.04,312.96c-2.68-4.65-8.98-4.5-12.85-1.57-2.14,1.62-3.75,3.79-5.22,6.02s-2.94,4.78-3.97,7.37c-.97,2.45-1.36,5.38.03,7.76,1.26,2.15,3.69,3.31,6.15,3.16,4.97-.3,9.09-4.04,12.1-7.7,1.91-2.33,3.84-5,4.79-7.89.99-3.05-.23-7.33-3.85-7.89-1.33-.21-2.69.34-3.08,1.75-.33,1.19.4,2.87,1.75,3.08.03,0,.62.21.45.1-.11-.07-.2-.17-.07.02.1.15.13.15.18.44-.08-.41-.03.53-.03.53-.08.45-.26.89-.45,1.3-.78,1.69-1.86,3.32-3.02,4.77-1.23,1.55-2.64,2.97-4.16,4.24-1.1.93-2.43,1.72-3.75,2.07-.21.06-.43.1-.64.15-.42.09.32-.01-.1.02-.21.01-.42,0-.63.02-.08,0-.5-.03-.06.02-.16-.02-.93-.27-.53-.09-.14-.06-.28-.15-.41-.23.36.23-.16-.15-.24-.24.2.24-.13-.21-.16-.28-.2-.39.06.25-.06-.16-.14-.44-.11-.27-.11-.84,0-.66.2-1.4.49-2.22.59-1.67,1.7-3.56,2.7-5.2s2.04-3.27,3.33-4.68c.66-.72,1.27-1.3,2.07-1.79.37-.22.69-.4,1.01-.51.2-.07.4-.12.61-.17.14-.03.57-.09.21-.05.21-.02.42-.03.64-.03.1,0,.75.05.55.02-.28-.04.23.05.29.07.1.03.7.21.53.14-.25-.1.21.1.26.13.09.05.59.39.45.28-.2-.17.16.17.2.21.11.13.11.12,0-.04.1.14.18.28.26.42,1.6,2.79,5.93.27,4.32-2.52h0Z"/>
  <path class="st1" d="M720.46,324.12c-1-1.04-2.55-1.64-3.99-1.53s-2.91.65-3.85,1.79c-1.1,1.33-1.51,3.03-1.03,4.72.4,1.41,1.4,2.77,2.74,3.43,1.75.86,3.64.64,5.34-.25.72-.38,1.37-.9,2.01-1.41.55-.44,1.04-.89,1.47-1.45.6-.78,1.02-1.74.96-2.75-.07-1.06-.51-2.1-1.34-2.79-1.45-1.21-3.22-1.49-5.05-1.19-1.45.24-2.9,1.09-3.91,2.16-1.21,1.29-1.92,2.9-2,4.66-.06,1.37,1.19,2.47,2.5,2.5,2.1.04,4.66-.79,5.22-3.1.28-1.17.04-2.4-.7-3.35-.84-1.08-2.24-1.7-3.6-1.25-.62.2-1.16.58-1.49,1.15-.31.54-.45,1.33-.25,1.93.4,1.24,1.74,2.18,3.08,1.75.05-.02.1-.03.15-.04l-.66.09c.08,0,.14,0,.22,0l-.66-.09c.07.01.14.03.2.06l-.6-.25c.07.03.12.07.19.12l-.51-.39c.08.07.15.14.21.22l-.39-.51c.06.09.11.18.16.28l-.25-.6c.05.13.09.26.11.4l-.09-.66c.01.11.01.22,0,.33l.09-.66c-.01.11-.04.21-.08.32l.25-.6c-.05.11-.11.2-.18.3l.39-.51c-.09.1-.18.19-.29.28l.51-.39c-.14.1-.28.18-.43.25l.6-.25c-.29.12-.59.19-.9.24l.66-.09c-.32.04-.63.05-.95.04l2.5,2.5c0-.14.02-.27.03-.41l-.09.66c.05-.37.15-.72.29-1.06l-.25.6c.16-.37.37-.72.61-1.04l-.39.51c.27-.35.58-.66.93-.93l-.51.39c.35-.27.73-.49,1.14-.66l-.6.25c.38-.15.76-.26,1.16-.32l-.66.09c.37-.05.74-.05,1.11,0l-.66-.09c.27.04.53.11.79.21l-.6-.25c.22.09.43.21.62.35l-.51-.39c.13.11.24.22.34.35l-.39-.51c.07.11.13.21.19.34l-.25-.6c.03.1.06.18.07.28l-.09-.66c.02.15.01.28,0,.43l.09-.66c-.03.14-.07.27-.12.4l.25-.6c-.08.17-.18.32-.28.47l.39-.51c-.41.52-.95.94-1.47,1.35l.51-.39c-.53.41-1.08.78-1.69,1.05l.6-.25c-.3.12-.6.21-.92.26l.66-.09c-.27.03-.54.04-.81,0l.66.09c-.21-.03-.42-.09-.62-.17l.6.25c-.2-.09-.38-.19-.55-.32l.51.39c-.22-.17-.41-.36-.58-.58l.39.51c-.17-.23-.3-.46-.42-.72l.25.6c-.1-.26-.17-.52-.21-.8l.09.66c-.03-.24-.02-.48,0-.73l-.09.66c.04-.21.09-.41.18-.61l-.25.6c.08-.16.16-.31.27-.46l-.39.51c.14-.18.3-.34.49-.49l-.51.39c.19-.14.39-.25.6-.35l-.6.25c.27-.11.55-.19.85-.23l-.66.09c.29-.03.58-.03.88,0l-.66-.09c.23.04.45.1.67.18l-.6-.25c.21.09.41.21.6.35l-.51-.39c.09.08.18.15.26.24.91.94,2.63.98,3.54,0s.97-2.53,0-3.54h0Z"/>
  <path class="st1" d="M720.32,344.19c-10.56,1.85-21.63-5.72-24.18-16.01-.42-1.7-2.26-2.13-3.67-1.49-2.1.94-4.19,1.88-6.29,2.82l2.52,4.32c3.54-1.85,7.07-3.7,10.61-5.55,2.85-1.49.33-5.81-2.52-4.32-3.54,1.85-7.07,3.7-10.61,5.55-1.2.63-1.56,2.29-.9,3.42.74,1.27,2.18,1.45,3.42.9,2.1-.94,4.19-1.88,6.29-2.82l-3.67-1.49c3.24,13.11,17.15,21.81,30.33,19.5,1.33-.23,2.08-1.86,1.75-3.08-.39-1.41-1.74-1.98-3.08-1.75h0Z"/>
  <path class="st1" d="M612.75,399.36c2.44.1,4.68-.42,6.92-1.37l-3.67-2.82c-3.1,7.43-6.21,14.86-9.31,22.29-.37.89.19,2.1.9,2.63.85.64,1.83.64,2.78.2,5.49-2.59,10.56-5.94,15.15-9.9l-3.93-3.03c-2.27,4.29-4.55,8.57-6.82,12.86-1.19,2.24,1.19,4.59,3.42,3.42,3.94-2.06,7.88-4.12,11.81-6.18l-3.76-2.16c-.45,4.47-2.26,8.66-4.98,12.22-.82,1.07-.17,2.8.9,3.42,1.29.75,2.6.18,3.42-.9,3.27-4.29,5.12-9.39,5.66-14.74.2-2.01-2.24-2.96-3.76-2.16-3.94,2.06-7.88,4.12-11.81,6.18l3.42,3.42c2.27-4.29,4.55-8.57,6.82-12.86,1.36-2.57-1.79-4.87-3.93-3.03-4.27,3.68-9.04,6.72-14.14,9.12l3.67,2.82c3.1-7.43,6.21-14.86,9.31-22.29.37-.89-.19-2.1-.9-2.63-.88-.66-1.8-.61-2.78-.2-1.4.59-2.9.75-4.39.68-3.22-.13-3.21,4.87,0,5h0Z"/>
  <path class="st1" d="M346.75,446.59c6.82,5.12,17.09,6,23.94.47,5.77-4.66,7.86-14.27,3.37-20.48-1.57-2.17-4.62-4.3-6.99-1.78-.95,1-1.29,2.42-1.71,3.7-.51,1.54-1.02,3.09-1.53,4.63l4.82,1.33c.8-3.62,1.88-7.17,3.25-10.62l-3.08,1.75c2.12.29,4.23.57,6.35.86,1.34.18,2.68-.32,3.08-1.75.32-1.17-.4-2.89-1.75-3.08-2.12-.29-4.23-.57-6.35-.86-1.46-.2-2.52.34-3.08,1.75-1.37,3.45-2.45,6.99-3.25,10.62-.69,3.15,3.81,4.39,4.82,1.33.41-1.24.82-2.47,1.23-3.71.2-.62.41-1.24.61-1.85.08-.26.17-.52.27-.78.23-.12.11.03-.37.46h-1.33c.4.07.47.08.21.02.17.16.33.34.48.52.19.23.36.52.52.78.34.57.57,1.08.76,1.68.42,1.35.53,2.55.41,4-.22,2.72-1.58,5.53-3.67,7.44-5.14,4.69-13.39,3.09-18.49-.73-1.08-.81-2.79-.17-3.42.9-.75,1.28-.19,2.61.9,3.42h0Z"/>
  <path class="st1" d="M293.66,459.28c1.91,2.21,4.28,4.02,6.92,5.28,1.55.74,3.94-.11,3.76-2.16-.47-5.29-.94-10.58-1.41-15.87l-3.76,2.16c3.02,1.94,6.05,3.87,9.07,5.81,1.39.89,3.23,0,3.67-1.49,1.59-5.36-.87-10.57-3.41-15.19l-3.42,3.42c3.6,1.96,7.41,3.12,11.47,3.63,1.35.17,2.49-1.28,2.5-2.5.04-5.43.07-10.86.11-16.29.02-3.22-4.98-3.22-5,0-.04,5.43-.07,10.86-.11,16.29l2.5-2.5c-3.13-.39-6.18-1.44-8.94-2.95-2.21-1.2-4.64,1.21-3.42,3.42,1.87,3.4,4.08,7.36,2.9,11.34l3.67-1.49c-3.02-1.94-6.05-3.87-9.07-5.81-1.51-.97-3.93.28-3.76,2.16.47,5.29.94,10.58,1.41,15.87l3.76-2.16c-2.3-1.1-4.24-2.57-5.91-4.5-.88-1.02-2.63-.91-3.54,0-1.01,1.01-.89,2.51,0,3.54h0Z"/>
  <path class="st1" d="M558.35,420.61c-.15,1.3.22,2.6.79,3.76s1.51,2.1,2.55,2.88c1.88,1.41,4.66,2.01,6.88,1.09.63-.26,1.14-.54,1.49-1.15.31-.54.45-1.33.25-1.93s-.57-1.19-1.15-1.49-1.32-.5-1.93-.25c-.36.15-.73.25-1.12.3l.66-.09c-.38.04-.76.04-1.14,0l.66.09c-.47-.06-.93-.19-1.37-.37l.6.25c-.47-.2-.91-.46-1.32-.77l.51.39c-.41-.32-.77-.67-1.09-1.08l.39.51c-.27-.36-.5-.74-.68-1.15l.25.6c-.16-.38-.27-.78-.33-1.19l.09.66c-.04-.36-.05-.71,0-1.07.07-.59-.33-1.36-.73-1.77-.43-.43-1.15-.76-1.77-.73s-1.32.24-1.77.73c-.48.52-.65,1.07-.73,1.77h0Z"/>
  <path class="st1" d="M143.39,106.27c-8.52-1.51-10.22,9.77-11.01,15.79-.72,5.55-1.5,13.61,3.16,17.8,2.66,2.39,6.37,2.58,9.51,1.06s5.13-4.69,6.45-7.88c2.32-5.58,3.31-11.84,2.2-17.82-.63-3.38-2.11-6.54-4.34-9.16-1.25-1.47-2.85-2.7-4.88-2.58-2.48.15-4.11,2.51-3.57,4.86.73,3.13,5.55,1.81,4.82-1.33l-.92,1.44h-.18c.09.14.41.31.56.46.31.31.61.65.88,1,.66.85,1.22,1.82,1.66,2.8.74,1.66,1.18,3.53,1.34,5.34.36,4.27-.43,8.52-1.94,12.51-.76,2-1.79,4.21-3.59,5.46-1.32.92-3.18,1.33-4.47.3s-1.81-3.08-2.02-4.71c-.28-2.21-.14-4.53.03-6.74.24-3.07.8-6.11,1.62-9.08.37-1.33,1.28-5.07,3.35-4.7,1.33.24,2.69-.36,3.08-1.75.33-1.21-.41-2.84-1.75-3.08h0Z"/>
  <path class="st1" d="M145.55,125c-2.61-1.54-6.02-.62-7.88,1.67-1.67,2.05-2.77,5-2.55,7.67.13,1.59.62,3,1.64,4.24.79.96,2.03,1.73,3.24,1.99,1.37.3,2.85.17,4.05-.61s1.99-1.96,2.42-3.32c.33-1.07.41-2.25.4-3.37,0-1.29-.05-2.58-.09-3.86-.05-1.69-.54-3.49-2.18-4.31-1.43-.71-3.22-.6-4.53.34s-2,2.33-2.6,3.81c-.4.98-.6,2.02-.69,3.07-.23,2.76,1.45,5.4,4.38,5.55,3.37.17,6.14-3.07,6.12-6.29-.01-3.39-2.89-6.06-6.19-6.2-.87-.04-1.73.5-2.16,1.24-1.43,2.46.42,5.7,3.27,5.7,1.31,0,2.56-1.15,2.5-2.5s-1.1-2.5-2.5-2.5c-.27,0-.17.01.3.05.27.07.5.21.68.41-.3-.29.28.53.08.13.37.77.15.27.08.14.09.28.09.57,0,.85-.2.4-.23.49-.11.26l-2.16,1.24c.1,0,.21.03.3.02-.01,0-.53-.11-.29-.03.13.05.36.14.51.15-.07,0-.53-.27-.18-.07.07.04.13.07.2.11s.13.08.19.12c.42.26-.27-.27-.09-.06.08.09.26.32.37.38-.05-.02-.33-.5-.11-.14.04.06.08.13.12.19.05.09.09.18.14.27.13.22-.11-.23-.1-.25-.02.04.12.51.16.59-.03-.05-.04-.63-.04-.22,0,.07,0,.15,0,.22-.01.6.13-.42.02,0-.04.17-.09.33-.14.5-.08.31.24-.47.09-.19-.05.09-.09.18-.14.26s-.11.17-.15.25c-.11.22.17-.2.17-.21-.12.11-.23.26-.35.38-.42.4.35-.18-.01.02-.08.05-.17.1-.25.15-.29.18.1-.08.2-.06-.06,0-.77.26-.42.14s-.29-.08.09,0c.34.07.01,0-.04-.03.72.27.3.11.11.02-.26-.12.46.38.25.18-.07-.07-.25-.29.02.05.3.38.03-.03-.04-.12.34.46.18.5.13.28-.01-.06-.03-.11-.05-.17-.02-.08-.03-.16-.05-.23-.07-.23.05.38.05.36.03-.15-.02-.35-.02-.51s.02-.31.03-.46c.04-.59-.1.48,0,.06.08-.36.15-.71.26-1.06.04-.13.08-.25.13-.38.03-.07.23-.57.08-.22s.11-.24.15-.33c.1-.2.2-.4.32-.6.01-.02.14-.26.19-.28,0,0-.42.45-.07.12s-.39.19-.02,0c.39-.19-.19.08-.2.07.02,0,.29-.09.28-.08.03-.02-.58.1-.31.05.19-.04.55.11-.18-.05.11.02.26.13-.04-.03-.17-.09-.31-.16-.46-.3.28.26-.08-.11-.1-.15l-.06-.16c-.08-.21-.08-.21-.01,0,0,0,.05.45.02-.01-.03-.38,0-.08,0,0,.01.27.02.54.03.81.03,1.04.05,2.07.08,3.11,0,.34.01.69,0,1.03,0,.15-.01.3-.02.45,0,.1-.02.2-.02.3-.03.45.08-.46.02-.15-.06.33-.14.66-.24.98-.16.51.21-.34,0-.02-.04.06-.07.12-.1.18-.18.37-.03-.04.12-.12-.1.05-.26.26-.33.34-.15.18.2-.18.23-.18-.02,0-.25.16-.24.14,0-.03.51-.15.28-.11-.08.01-.19.04-.26.08-.19.1.29-.04.33-.03-.1-.02-.24,0-.34.01-.06,0-.15-.03-.21-.01.4-.1.51.11.25.03-.15-.05-.32-.1-.47-.14-.24-.06.26.1.27.11-.02-.03-.24-.13-.25-.14-.06-.04-.12-.07-.18-.11-.35-.23.02-.05.1.09-.07-.11-.26-.27-.36-.35-.19-.16.16.22.16.23-.04-.08-.11-.16-.16-.24s-.33-.62-.16-.28c.14.3.02.04,0-.03-.04-.14-.08-.28-.12-.43-.01-.05-.02-.23-.05-.26.04.34.05.42.03.22,0-.06-.01-.12-.01-.18-.02-.24-.02-.48,0-.72,0-.12.02-.24.02-.36,0-.35-.09.46-.02.12.05-.24.09-.48.15-.72.12-.49.28-.96.45-1.43.02-.06.13-.34,0-.01-.14.37.04-.08.08-.16.1-.2.21-.4.32-.59.06-.1.12-.19.18-.28.19-.31-.09.03-.1.1.02-.14.33-.39.44-.49.08-.08.16-.15.24-.22.27-.25-.03.09-.12.09.07,0,.5-.26.56-.32-.27.26-.4.13-.15.07.13-.03.27-.06.39-.11.24-.09-.24.04-.27.02.06.04.33-.02.4-.02.06,0,.18.03.24,0-.15.06-.57-.12-.12,0,.06.01.17.07.23.07-.33-.15-.4-.18-.23-.1.07.03.14.07.21.12,1.13.66,2.79.29,3.42-.9s.31-2.71-.9-3.42h0Z"/>
  <path class="st1" d="M130.54,168.78c1.57,2.02,3.26,4.04,5.5,5.35,2.48,1.46,5.51,1.8,8.22.77,5.86-2.24,8.11-8.07,9.65-13.68.85-3.11-3.97-4.43-4.82-1.33-.58,2.14-1.16,4.31-2.23,6.27-.96,1.74-2.28,3.25-4.08,3.99-.83.34-1.57.47-2.5.34.27.04-.27-.08-.34-.09-.23-.06-.46-.13-.68-.21.22.09-.44-.22-.44-.22-.21-.11-.41-.24-.61-.37-1.5-.98-2.93-2.8-4.12-4.34-.83-1.07-2.67-.87-3.54,0-1.05,1.05-.83,2.46,0,3.54h0Z"/>
  <path class="st1" d="M146.12,163.13c1.13.38,2.37.56,3.56.5.68-.03,1.36-.12,2.03-.27.7-.15,1.34-.42,2-.7.53-.23,1-.96,1.15-1.49.16-.6.09-1.4-.25-1.93s-.86-1-1.49-1.15l-.66-.09c-.45,0-.87.12-1.26.34l-.09.04.6-.25c-.64.26-1.3.44-1.98.53l.66-.09c-.68.09-1.37.09-2.06,0l.66.09c-.52-.07-1.03-.19-1.53-.36-.59-.2-1.4-.06-1.93.25s-1.01.9-1.15,1.49c-.32,1.38.42,2.63,1.75,3.08h0Z"/>
  <path class="st1" d="M130.79,164.27c-1.15.84-2.12,1.83-2.83,3.07s-1.08,2.6-1.22,4.04c-.06.6.32,1.36.73,1.77.43.43,1.15.76,1.77.73s1.32-.24,1.77-.73l.39-.51c.23-.39.34-.81.34-1.26,0-.1.02-.2.04-.3l-.09.66c.08-.58.24-1.14.46-1.69l-.25.6c.25-.59.57-1.14.96-1.64l-.39.51c.35-.44.74-.84,1.18-1.18l-.51.39c.06-.05.12-.09.18-.14.29-.16.53-.37.7-.64.22-.24.37-.52.45-.85.16-.6.09-1.4-.25-1.93s-.86-1-1.49-1.15-1.39-.14-1.93.25h0Z"/>
  <path class="st1" d="M347.28,175.49c.47-17.99,2.79-38.8,18.31-50.5,3.66-2.76,7.81-4.68,12.32-5.54l-2.82-1.15c.46.6-.14-.36.16-.63-2.41,2.14,1.14,5.67,3.54,3.54,1.49-1.32,1.86-3.81.62-5.43-.73-.96-1.61-1.38-2.82-1.15-9.02,1.73-16.65,7.45-22.16,14.64-6.12,7.99-9.26,17.78-10.71,27.64-.91,6.16-1.27,12.37-1.43,18.58-.08,3.22,4.92,3.22,5,0h0Z"/>
  <path class="st1" d="M400.62,97.74c-2.98-1.89-5.77.69-7.5,2.95-1.64,2.15-2.89,4.52-3.85,7.04-1.92,5.03-2.3,10.65-1.18,15.91.55,2.56,1.52,5.34,3.88,6.76,2.91,1.74,6.18.2,8.46-1.82,4.13-3.65,6.64-8.96,7.21-14.4.67-6.3-1.67-12.65-5.89-17.3-2.17-2.39-5.7,1.16-3.54,3.54,5.45,6,5.93,14.95,1.39,21.6-.99,1.45-2.37,3.13-3.98,3.91-1.5.73-1.99-.91-2.33-2.11-1.07-3.69-1.1-7.68-.23-11.41.49-2.08,1.22-4.07,2.25-5.95.56-1.02,1.19-2.02,1.9-2.95.26-.33.53-.69.83-.98.05-.05.28-.23.37-.33.44-.5.16.14-.31-.16,2.73,1.73,5.24-2.6,2.52-4.32h0Z"/>
  <path class="st1" d="M398.17,115.81c-2.7-.1-5.52,1.19-7.2,3.31-.9,1.13-1.64,2.43-1.86,3.88-.29,1.94.08,3.93,1.71,5.19,1.34,1.04,3.26,1.34,4.86.73s2.86-1.8,3.65-3.32,1.2-3.13,1.36-4.82c.06-.7.05-1.41-.03-2.11-.13-1.09-.27-2.26-1.12-3.07-1.68-1.6-4.17-.97-5.55.7-.94,1.14-1.63,2.44-1.83,3.91-.24,1.8.35,3.47,1.87,4.53,1.36.95,3.35.87,4.71-.04,1.57-1.06,2.48-2.99,1.88-4.87s-2.29-3.21-4.29-3.37c-1.77-.14-3.58,1.03-4.37,2.57-1,1.93-.83,4.77,1.43,5.72,1.75.74,3.64-.11,4.87-1.41s2.3-3.15,1.59-5.01c-.43-1.13-1.22-1.99-2.39-2.37-1.04-.33-2.29-.03-3.16.6-1.31.95-2.33,2.34-2.61,3.96-.16.96-.16,1.8.05,2.75.3,1.36,1.81,2.04,3.08,1.75,1.66-.38,2.9-1.78,3.37-3.37s.07-3.44-1.11-4.68c-.9-.95-2.64-.98-3.54,0s-.96,2.52,0,3.54c.27.28-.26-.43-.16-.23.01.02.1.21.13.21-.06,0-.22-.69-.12-.28.01.04.02.21.06.24-.06-.05-.03-.73-.05-.32,0,.08,0,.17,0,.25,0,.38.13-.58.04-.31-.03.08-.04.17-.06.25-.02.06-.05.13-.07.19.15-.62.21-.47.08-.23-.03.06-.08.11-.11.17.24-.53.35-.41.17-.23-.06.06-.13.11-.18.17.41-.49.44-.29.23-.19-.38.19.26-.11.28-.1-.03-.02-.26.08-.29.08l3.08,1.75c-.02-.09-.09-.53-.02-.05.06.43.02.12.02,0s0-.22,0-.33c0-.21.14-.3-.05.28.05-.16.07-.34.12-.51.02-.06.08-.18.08-.25-.17.39-.21.47-.1.24l.06-.12c.06-.11.44-.66.16-.29s.17-.15.24-.23c.19-.19.15.05-.2.15.06-.01.2-.13.23-.15.33-.21-.17.07-.21.09-.41.14-.84,0-1.21-.19.31.15-.24-.19-.25-.2l-.26-.33c.09.16.08.12-.02-.1-.16-.4-.06-.14-.03-.03.07.29,0-.7-.05-.27,0-.02.14-.72.03-.3-.07.25-.15.11.1-.2-.05.07-.09.17-.14.25-.13.21-.38.37.05-.04-.14.13-.25.3-.38.44-.07.08-.57.5-.2.22s-.19.08-.28.15c.45-.33.47-.16.26-.11-.3.07-.38-.01.23-.01s.59.11.37.04c.51.16.84.41,1.09.83l.13.33c-.05-.21-.05-.19,0,.05.06.41.03.12.03,0-.02-.31-.17.67-.03.23.02-.08.04-.16.07-.24.06-.22.19-.15-.11.25,0-.01.19-.33.19-.32.03.03-.44.49-.15.21.04-.03.15-.12.18-.17-.21.36-.43.29-.21.17.08-.04.46-.22.03-.04-.49.21.02-.02.05,0,.03.02-.71.03-.29.04.24,0,.2.09-.29-.06.01,0,.36.1.36.1-.04.03-.58-.31-.26-.09.05.03.15.11.21.14-.39-.16-.39-.32-.22-.15.32.33-.27-.44-.11-.17.04.07.08.14.13.21.17.26-.2-.63-.09-.2.07.28-.09.03-.02-.3v.12c0,.27.01.17.06-.31-.01.02-.04.21-.06.21-.03,0,.3-.62.11-.3s.19-.26.2-.24-.17.17-.19.2c-.17.22.5-.3.24-.19-.03.01-.23.15-.24.14-.03-.04.66-.21.29-.13l-.11.03c-.25.06-.14.04.34-.03-.06,0-.16,0-.22,0-.25.01-.13-.19.35.05-.03-.02-.16-.05-.21-.06.34.05.54.24.3.11-.38-.21.42.35.21.15-.08-.07-.24-.29.03.06l.13.17c-.04-.06-.07-.11-.1-.18.08,0,.2.69.12.27,0-.04-.03-.23-.06-.25.03.03.04.69.06.35,0-.14.02-.3.02-.44,0,.7-.08.5-.02.27.02-.08.04-.15.06-.23.03-.1.06-.19.09-.28.03-.1.18-.46,0-.04-.19.45.08-.14.14-.25.08-.14.16-.28.26-.41.04-.06.1-.13.14-.2-.34.57-.28.35-.13.19.06-.06.11-.12.17-.18.38-.37-.3.17-.09.05.1-.05.37-.18-.01-.03l-.18.07c.26-.07.15-.07-.32.02-.29-.02-.58-.09-.83-.23.56.31-1.04-.81-.8-1,0,0,.13.59.13.61.06.34-.05-.52-.03-.18.01.16.03.32.04.49.03.46.02.92-.02,1.38,0,0-.05.3-.03.32-.09-.13.09-.53.02-.18-.05.27-.1.53-.17.8s-.14.52-.23.78c-.07.2-.36.8-.03.14-.19.38-.37.77-.61,1.12-.04.06-.3.46-.06.09.21-.32.04-.07-.03.02-.14.15-.32.28-.45.43.04-.04.51-.34.17-.15-.08.04-.17.09-.24.14-.34.23.26-.1.25-.1-.08.07-.26.08-.36.11-.44.15.54-.03.23-.02-.08,0-.17.01-.25.01-.08,0-.25.03-.32-.01-.02-.01.68.17.3.03-.07-.02-.17-.06-.24-.07.53.1.45.22.26.1-.05-.03-.15-.11-.21-.13.34.27.41.32.22.15l-.09-.09c.25.13.3.43.16.18-.24-.41.15.54.04.11-.02-.09-.04-.17-.07-.26-.13-.46.02.58.02.12,0-.09,0-.18,0-.28,0-.09,0-.19.02-.28l-.05.39c-.01-.2.1-.48.16-.66.03-.1.07-.2.1-.3.15-.4-.06.06-.08.18.02-.17.21-.42.3-.57.11-.18.26-.35.35-.53-.28.53-.27.33-.11.15.07-.08.14-.16.21-.24.15-.16.3-.31.46-.45.08-.07.16-.14.25-.21.2-.17-.53.39-.09.08.18-.12.36-.24.55-.34.11-.06.78-.37.34-.19-.38.16-.1.04,0,0,.12-.05.24-.09.36-.12.2-.06.41-.12.62-.16.08-.02.17-.03.25-.05.27-.05-.7.07-.15.03.24-.02.47-.02.71,0,1.31.05,2.56-1.19,2.5-2.5-.06-1.4-1.1-2.45-2.5-2.5h0Z"/>
  <path class="st1" d="M379.04,260.53c16.36,2.97,33.42-3.12,43.78-16.23,2.79-3.54,5-7.36,6.69-11.53.51-1.25-.55-2.75-1.75-3.08-1.43-.39-2.56.49-3.08,1.75-5.35,13.14-17.71,22.59-31.72,24.54-4.16.58-8.46.49-12.6-.26-1.33-.24-2.7.36-3.08,1.75-.33,1.21.41,2.83,1.75,3.08h0Z"/>
  <path class="st1" d="M617.5,249.52c.16-3.33,1.14-6.57,2.84-9.43.64-1.08,1.59-2.86,2.77-3.43.28-.14.11-.22.33-.06.37.25.58.92.73,1.37,1.06,3.26,1.48,6.88,1.75,10.28.3,3.84.28,7.7-.09,11.53s-1.08,7.48-2.11,11.12c-.81,2.88-1.77,5.73-3.43,8.24-.67,1.01-1.49,1.97-2.47,2.69-.55.4-2,1.43-2.63,1.02-.42-.27-.68-1.34-.81-1.77-.26-.84-.48-1.71-.6-2.58-.23-1.68-.2-3.41-.07-5.1.32-4.28,1.35-8.52,2.14-12.73.86-4.51,1.71-9.02,2.57-13.54.25-1.33-.37-2.7-1.75-3.08-1.22-.34-2.82.41-3.08,1.75-.9,4.75-1.8,9.51-2.7,14.26s-1.93,9.14-2.22,13.78c-.25,3.94.01,9.37,2.9,12.43,3.22,3.41,8.16.87,10.86-1.89s4.27-6.36,5.43-9.96c1.4-4.32,2.29-8.77,2.81-13.28s.58-9.23.15-13.82c-.21-2.29-.53-4.57-.96-6.83-.37-1.97-.74-4.03-1.7-5.81-1.06-1.96-2.99-3.31-5.28-3.11-2.64.24-4.41,2.41-5.85,4.41-2.82,3.94-4.33,8.71-4.56,13.53-.15,3.22,4.85,3.21,5,0h0Z"/>
  <path class="st1" d="M614.58,255.65l5.69.7c.59.07,1.37-.33,1.77-.73.43-.43.76-1.15.73-1.77s-.24-1.32-.73-1.77l-.51-.39c-.39-.23-.81-.34-1.26-.34l-5.69-.7c-.59-.07-1.37.33-1.77.73-.43.43-.76,1.15-.73,1.77s.24,1.32.73,1.77l.51.39c.39.23.81.34,1.26.34h0Z"/>
  <path class="st1" d="M614.77,264.69c1.7.71,3.62,1.02,5.45.93.66-.03,1.29-.26,1.77-.73.43-.43.76-1.15.73-1.77s-.24-1.32-.73-1.77-1.1-.76-1.77-.73-1.34,0-2.01-.09l.66.09c-.96-.13-1.89-.39-2.78-.76-.56-.23-1.43-.04-1.93.25-.52.3-1.01.9-1.15,1.49-.15.64-.11,1.36.25,1.93l.39.51c.31.31.68.52,1.1.64h0Z"/>
  <path class="st1" d="M613.52,274.89l4.68.54c.59.07,1.36-.33,1.77-.73.43-.43.76-1.15.73-1.77s-.24-1.32-.73-1.77l-.51-.39c-.39-.23-.81-.34-1.26-.34l-4.68-.54c-.59-.07-1.36.33-1.77.73-.43.43-.76,1.15-.73,1.77s.24,1.32.73,1.77l.51.39c.39.23.81.34,1.26.34h0Z"/>
  <path class="st1" d="M525.54,240.23c11.55,17.01,31.07,25.86,51.03,28.17,6.17.71,12.39.81,18.58.47,3.2-.17,3.22-5.18,0-5-19.35,1.05-39.88-2.47-55.18-15.15-3.85-3.19-7.3-6.86-10.11-11-1.8-2.65-6.13-.15-4.32,2.52h0Z"/>
  <path class="st1" d="M458.35,193.71c17.4,2.05,34.91,3.25,52.43,3.55,4.96.09,9.92.1,14.88.05,3.22-.03,3.22-5.03,0-5-17.52.19-35.05-.49-52.51-2.06-4.94-.44-9.87-.96-14.8-1.54-1.34-.16-2.5,1.26-2.5,2.5,0,1.48,1.15,2.34,2.5,2.5h0Z"/>
  <path class="st1" d="M497.14,201.23c-.79,6.64-.07,13.46,2.06,19.8.43,1.28,1.72,2.12,3.08,1.75,1.25-.34,2.18-1.79,1.75-3.08-2-5.97-2.62-12.21-1.88-18.47.16-1.34-1.26-2.5-2.5-2.5-1.48,0-2.34,1.15-2.5,2.5h0Z"/>
  <path class="st1" d="M480.65,99.29c-2.12-2.17-5.56-1.91-7.74.04-2.02,1.81-2.9,4.75-3.49,7.31-1.22,5.34-.93,11.1.97,16.25.92,2.49,2.1,5.25,4.01,7.15,2.11,2.1,5.44,2.81,7.63.39.98-1.09,1.48-2.54,1.97-3.89s.92-2.85,1.24-4.31c.63-2.92.93-5.93.84-8.92-.18-5.6-1.53-12.43-7.48-14.54-1.27-.45-2.74.51-3.08,1.75-.38,1.38.47,2.62,1.75,3.08,2.65.94,3.38,4.83,3.64,7.26.47,4.34.06,8.71-1.23,12.88-.27.88-.56,1.79-.94,2.63-.09.2-.28.71-.47.79.05-.02.32-.13.19-.21-1.37-.91-2.17-2.83-2.81-4.28-1.54-3.49-2.14-7.35-1.91-11.15.12-2.07.56-4.1,1.23-6.06.28-.82.62-1.91,1.35-2.45.32-.24.67-.31.81-.17,2.26,2.3,5.79-1.23,3.54-3.54h0Z"/>
  <path class="st1" d="M476.58,117.7c-3.36,2.63-5.51,7.48-3.73,11.58.95,2.18,3.49,3.47,5.8,2.67,2.67-.92,4.14-3.59,4.45-6.27s-1.19-5.23-3.76-6.14c-2.36-.84-5.38.39-5.93,2.98s1.06,5.37,3.83,5.44,5.09-2.83,4.9-5.48c-.12-1.66-1.14-3.33-2.85-3.73-1.38-.32-2.95,0-3.97,1.03-1.39,1.4-1.55,3.95.35,5.04,1.06.61,2.39.45,3.33-.28,1.03-.8,1.35-1.92,1.12-3.18s-1.87-2.14-3.08-1.75c-1.38.45-2,1.69-1.75,3.08-.39-2.15,1.68-3.13,3.27-1.88l.64,1.1-.03-.1c.09.32.09.64,0,.95.1-.39-.32.61-.11.26l-.27.36c.18-.17.08-.1-.28.2.25-.16.34-.07-.24.06.06-.01.14-.04.2-.06.4-.15-.68.02-.25.03s-.67-.17-.26-.05c.24.07.13.03-.31-.14.21.13.12.06-.26-.21.3.28-.32-.52-.09-.1,0-.02-.24-.61-.11-.23.16.46-.03-.63-.03-.14s.18-.6.02-.13c-.04.11-.12.29-.12.4l.14-.34c-.04.08-.09.17-.14.25-.12.23-.2.04.14-.16-.05.03-.39.35-.41.4l.26-.21c-.09.06-.18.11-.27.15l.31-.14c-.28.07-.2.06.26-.02-.42.02.6.13.31.05s.63.33.28.12.49.44.19.15.33.56.14.18c-.14-.28-.04-.32.07.22-.02-.11-.06-.25-.1-.36-.09-.28.02.71.05.29.02-.34.13-.25-.06.24.03-.09.07-.21.09-.3l-.17.41c.13-.21.06-.13-.21.24.07-.05.35-.3,0-.04-.38.29.02.04.06,0-.25.25-.52.21-.14.09.41-.13-.71.06-.05.03.47-.02-.62-.16-.17-.02.08.02.17.05.25.07.46.11-.53-.3-.12-.05.09.06.23.17.33.2l-.3-.23c.07.06.13.11.19.17.24.24.1.34-.07-.11.03.07.1.18.15.25.12.24.1.19-.06-.15.04.1.07.21.09.31l.04.16c.05.27.04.21-.02-.18,0,0,.01.46.01.49v.17c-.03.28-.02.22.02-.17,0,0-.07.36-.07.33-.04.16-.08.33-.13.49l-.05.16c-.1.25-.08.21.07-.13.06.04-.45.8-.5.88-.18.28.43-.44.06-.08-.11.11-.22.22-.32.33-.36.37.48-.26.03-.03l-.13.08c-.24.12-.17.1.2-.07-.07-.01-.27.08-.35.1-.33.1.67-.07.16-.04s.59.17.17.02c-.58-.21.41.27.08.04-.5-.35.44.38,0-.02-.32-.29.34.54.11.15-.06-.1-.12-.2-.18-.3-.14-.26-.04-.41.06.16-.02-.11-.08-.24-.11-.35-.03-.1-.05-.2-.07-.3-.15-.56.03.57,0,.1-.02-.3-.03-.59-.02-.89.01-.24.15-.55-.04.16.03-.12.04-.24.07-.36.08-.35.19-.69.31-1.03.06-.17.31-.58-.02,0,.08-.14.13-.29.2-.43.17-.33.35-.66.55-.97.09-.13.18-.26.27-.39.29-.44-.32.37,0,0,.49-.57,1-1.09,1.59-1.55.47-.37.73-1.2.73-1.77,0-.61-.27-1.35-.73-1.77s-1.1-.76-1.77-.73c-.71.03-1.22.3-1.77.73h0Z"/>
  <path class="st1" d="M512.07,101.42c-3.12,7.72-6.24,17.23-.92,24.8,1.22,1.73,3,3.8,5.26,3.94,2.62.17,3.85-1.91,4.72-4.03,1.55-3.75,2.21-7.92,1.95-11.97-.3-4.7-1.71-9.28-4.24-13.27-1.72-2.71-6.05-.2-4.32,2.52,2.13,3.35,3.39,7.17,3.58,11.14.1,2.04-.03,4.08-.47,6.07-.2.91-.45,1.8-.75,2.68-.15.42-.3.85-.47,1.26-.05.11-.51.87-.49.96,1.06-.05,1.37-.18.92-.4-.19-.17-.38-.34-.55-.52-.29-.29-.57-.6-.82-.93-.46-.62-.87-1.34-1.17-2.04-.77-1.79-1.06-3.77-1.03-5.7.06-4.6,1.94-9.01,3.64-13.21.51-1.25-.55-2.75-1.75-3.08-1.43-.39-2.57.49-3.08,1.75h0Z"/>
  <path class="st1" d="M515.82,116.38c-1.95,2.08-3.06,4.87-3.05,7.73,0,1.39.24,2.94.91,4.18.5.92,1.33,1.6,2.35,1.85,1.29.31,2.56-.22,3.5-1.09,2.19-2.01,3.02-5.43,2.28-8.26-.27-1.01-.84-2.03-1.78-2.57s-2-.65-3.01-.31c-2.07.71-2.94,2.67-2.99,4.74-.02.83.11,1.62.73,2.24.4.4.96.69,1.5.82,1.15.28,2.3-.11,3.17-.87,1.51-1.31,1.78-3.69.31-5.16-.93-.92-2.62-1-3.54,0s-.99,2.55,0,3.54c.17.18.1.08-.22-.29l-.19-.44c-.11-.33-.09-.57,0-.91-.11.38.3-.63.12-.26-.09.18-.38.43.17-.2-.15.17-.44.26.22-.15-.31.19.65-.17.28-.1l.5-.06c-.17,0-.11.01.16.04.2.03.93.42.53.12l1.24,2.16c0-.18,0-.37,0-.55,0-.1.06-.64,0-.22-.07.48.09-.24.09-.27,0,.02-.24.46-.1.24.17-.27-.37.36-.16.18.41-.34-.4.2-.04.03.03-.02-.55.21-.3.14s-.39.04-.36.04c.05,0-.62-.11-.36-.05s-.39-.17-.46-.23c-.15-.11-.27-.23-.38-.38.19.27-.08-.1-.08-.21,0,.14.1.35.13.49.02.1.11.61.04.18s0,.13,0,.25c0,.17,0,.34,0,.51,0,.07-.01.15-.02.22-.03.42.02-.19.03-.23-.05.13-.05.29-.09.43-.04.17-.09.33-.14.5-.02.07-.05.14-.07.21-.11.33.02-.13.09-.19-.1.1-.16.33-.23.46s-.15.25-.23.38c-.04.06-.08.12-.12.18-.23.34.09-.13.12-.16-.12.09-.26.27-.36.38-.2.24.42-.24.14-.11-.25.12.28-.09.26-.09.37-.08.8-.02,1.13.17.21.12.45.33.55.55-.02-.05-.07-.12-.1-.17-.15-.19.16.29.11.3,0,0-.08-.22-.09-.24-.1-.3-.17-.61-.23-.92-.02-.1-.03-.19-.05-.29-.05-.27.04.33.04.3,0-.17-.03-.34-.04-.51-.02-.31-.01-.63,0-.95,0-.12.07-.68.01-.25s.03-.13.05-.24c.07-.38.17-.76.3-1.13.04-.1.25-.63.08-.25s.09-.18.15-.3c.16-.32.35-.64.55-.94.04-.06.09-.12.13-.18.17-.26-.33.4-.13.16.14-.17.28-.33.43-.49.89-.96,1.02-2.6,0-3.54s-2.58-1.02-3.54,0h0Z"/>
  <path class="st1" d="M490.54,175.24c4.48,5.93,12.07,8.41,19.28,6.84s13.38-7.14,16.8-13.67c2.12-4.03,3.41-8.42,4.1-12.91.21-1.33-.34-2.69-1.75-3.08-1.19-.33-2.87.4-3.08,1.75-1.26,8.09-4.57,16.39-11.85,20.83-5.91,3.6-14.67,3.7-19.2-2.29-.81-1.08-2.16-1.64-3.42-.9-1.06.62-1.72,2.34-.9,3.42h0Z"/>
  <path class="st1" d="M523.09,154.73l13.51.69c1.24.06,2.3-1,2.46-2.17.18-1.32-.62-2.27-1.79-2.74-1.5-.6-3.32.24-4.07,1.59-.63,1.15-.32,2.78.9,3.42s2.75.33,3.42-.9c-.22.3-.52.52-.89.64-.88-.11-1.11-.09-.69.06l.66-4.91-13.51-.69c-1.31-.07-2.56,1.2-2.5,2.5.06,1.41,1.1,2.43,2.5,2.5h0Z"/>
  <path class="st1" d="M600.24,106.59c-3.01-2.79-7.27-3.51-11.17-2.39-4.09,1.17-7.27,4.29-9.2,8.01-3.99,7.67-4.74,18.26-.43,25.94,2,3.56,5.18,6.44,8.95,8s8.91,1.78,12.44-.87,5.32-7.37,6.57-11.42c1.36-4.43,1.93-9.16,1.66-13.79s-1.21-10.25-4.25-14.17-8.65-5.81-12.8-2.74c-1.08.8-1.63,2.17-.9,3.42.63,1.07,2.33,1.7,3.42.9,2.24-1.65,5.01-.38,6.5,1.67,1.94,2.68,2.61,6.4,2.92,9.62.67,6.97-.6,14.69-4.43,20.66-3.6,5.59-11.29,2.19-14.55-1.96-4.28-5.45-4-13.38-2.02-19.67,1.02-3.25,2.84-6.57,5.96-8.2,2.39-1.25,5.72-1.4,7.8.52,2.36,2.18,5.9-1.34,3.54-3.54h0Z"/>
  <path class="st1" d="M596.24,124.44c-1.39-1.56-3.62-1.45-5.33-.53-1.49.8-2.63,2.28-3.56,3.65-1.88,2.78-2.88,6.26-2.79,9.62.1,3.56,1.56,7.42,5.31,8.48,3.39.96,6.93-.77,8.93-3.48s2.59-6.44,2.8-9.78c.22-3.55-.51-7.52-3.36-9.93-2.66-2.24-6.47-2.92-9.37-.7-2.54,1.95-3.34,5.2-3.55,8.25s-.05,6.93,1.83,9.64,5.86,4.45,9.09,2.81c1.69-.85,2.66-2.44,3.28-4.16s1.07-3.64,1.23-5.48c.33-3.75-2.03-8.06-6.19-8.15-3.84-.08-5.87,3.59-6.81,6.79-.54,1.84-.84,3.77-.93,5.69s.14,3.86,1.52,5.24c2.91,2.93,7.61,1.12,9.27-2.19s1.64-7.34.32-10.7c-.73-1.86-1.76-3.89-3.85-4.47-1.9-.53-4.01.3-5.24,1.78-2.1,2.54-3.59,8.28.02,10.23s7.28-1.78,7.83-5.25c.29-1.87-.23-4.2-2.29-4.82s-3.8.82-4.74,2.56-1.17,3.69-.89,5.69c.22,1.56,2.46,2.31,3.67,1.49,2.15-1.45,3.41-3.65,3.5-6.25h-5c-.03,1.1-.06,2.2-.1,3.3-.05,1.8,2.2,3.24,3.76,2.16,1.26-.87,2.09-1.94,2.59-3.39.4-1.16-.36-2.51-1.45-2.95-1.2-.48-2.41-.04-3.12,1.02-1.23,1.83-2.46,3.66-3.7,5.5l4.66,1.26c0-.69.25-1.31.78-1.86l-3.93-.51c.21.49.16,1.02.11,1.58-.21,2.07,2.23,2.87,3.76,2.16.48-.22.96-.45,1.44-.67h-2.52l.15.09-.9-.9.08.16-.34-1.26v.18c.12-.42.23-.84.35-1.26l-.07.16.9-.9-.14.1,1.26-.34h-.17c.42.11.84.22,1.26.33l-.14-.1.9.9-.09-.16.34,1.26-.02-.18-.34,1.26.08-.15c.62-1.2.31-2.71-.9-3.42-1.12-.65-2.8-.31-3.42.9-.7,1.36-.45,3.05.93,3.91s3.18.46,3.92-.96c.69-1.33.36-3.12-1.02-3.89s-2.72.01-4.03.63l3.76,2.16c.14-1.46-.21-2.78-.79-4.1-.66-1.5-2.9-1.55-3.93-.51-1.44,1.46-2.22,3.34-2.24,5.39-.03,2.6,3.33,3.24,4.66,1.26,1.23-1.83,2.46-3.66,3.7-5.5l-4.57-1.93c.09-.27-.19.33-.22.37.19-.26-.36.23-.07.03l3.76,2.16c.03-1.1.06-2.2.1-3.3.04-1.35-1.18-2.5-2.5-2.5-1.39,0-2.45,1.15-2.5,2.5-.02.7-.39,1.5-1.03,1.93l3.67,1.49c-.08-.57.13-1.39.46-1.97-.07.12.31-.56.31-.45l-1.44.27-1.01-.74-.12-.25c.06.28.06.26,0-.05-.02.26,0,.29.02.11.04-.18.03-.15-.02.1-.17.55-.59,1.43-.77,1.6-.44.46-.11-.13.06.06h-.13c-.19,0-.17,0,.06,0-.44-.4.73.44.63.45l.03.12c.03-.31.02-.37-.01-.19.14-.86.38-1.9.77-2.59.21-.38.22-.39.48-.51-.33.16.34.02.08,0-.06,0-.38-.05-.41-.03.09-.07.94,2.21,1,2.42.28,1.07.37,2.15.26,3.27-.08.77-.32,1.75-.61,2.3-.25.48-.3.48-.65.87.13-.14-.15.09-.17.1.44-.26-.76.27-.22.08-.02,0-.49.13-.1.04l-.25-.06c.21.11.18.09-.08-.05.06,0,.16.12.18.16.14.24-.13-.45-.14-.47-.09-.57.04-2.07.16-2.91.16-1.11.43-2.21.77-3.27.08-.25.16-.5.26-.75.3-.8-.1.17.12-.28.1-.21.2-.41.32-.6,0,0,.45-.66.22-.37.16-.2.36-.37.55-.55-.24.23.06-.01.12-.04-.46.2.43-.17-.02-.01.23-.08.37,0,.13-.02.44.05.97.63,1.13.99.37.86.29,1.88.11,2.77-.23,1.18-.51,2.44-.96,3.56.02-.05-.38.75-.34.69-.42.62.05,0-.21.24-.09.08-.56.25-.17.12.02,0-.71.14-.38.1s-.44-.02-.4-.02c.43.03-.09-.03-.2-.05-.12-.03-.25-.07-.37-.11.2.1.16.09-.11-.05-.15-.08-.3-.16-.45-.26-.62-.39.21.26-.31-.24.05.05-.51-.55-.32-.32.2.25-.33-.54-.29-.47-.41-.71-.68-1.79-.77-2.53-.12-1.01-.12-2.04-.1-3.05s.08-1.69.23-2.44c.18-.87.42-1.56.67-2.01.08-.14.17-.27.25-.41.33-.53-.27.17.2-.23.12-.1.22-.22.34-.32-.35.28.3-.15.39-.19.32-.14-.42.02.24-.06.83-.1-.25.03.23-.03.1-.01.65.03.24-.03.21.03.43.09.63.15.08.02.58.24.26.09.2.1.4.21.58.33.34.21.48.34.84.74s.78,1.28.99,2.07c.28,1.08.29,2.2.24,3.32-.09,1.94-.35,4.05-1.07,5.78-.22.54-.53,1.1-.89,1.57.11-.14-.21.24-.18.2-.08.09-.69.64-.49.49-.73.55-1.44.79-2.08.81-.21,0-.43.01-.64-.02.45.07-.24-.1-.33-.13.41.16-.3-.19-.32-.21.2.15-.32-.35-.32-.36-.37-.47-.66-1.63-.71-2.26-.19-2.15.16-4.25,1.07-6.14.5-1.03,1.09-1.96,1.82-2.77.14-.15.27-.3.42-.44.22-.19.24-.22.07-.09.14-.1.29-.19.44-.27-.2.16-.16-.17.1-.03-.15.03-.29.01-.44-.05-.57-.43-.7-.49-.39-.18.9,1.01,2.62.92,3.54,0,1-1,.9-2.52,0-3.54h0Z"/>
  <path class="st1" d="M587.86,180.99c-.44-2.57.2-5.34,1.57-7.62.7-1.15,1.6-2.23,2.69-3.04.46-.34,1.04-.74,1.62-.82.08-.01.33.04.32.04-.26-.08.15.32.04.12.73,1.25,1.24,2.61,2.21,3.71,1.02,1.17,2.51,1.86,4.02,2.07,3.1.43,6.22-.94,8.06-3.45,2.34-3.19,2.31-7.38,1.55-11.09-.28-1.36-1.83-2.04-3.08-1.75-1.46.35-2.44,1.42-2.91,2.81-.43,1.28.49,2.73,1.75,3.08,1.36.37,2.64-.46,3.08-1.75-.16.26-.36.48-.58.68l-3.08-1.75c.49,2.41.63,5.68-1.31,7.43-.58.52-1.57.88-2.36.88-.17,0-.36,0-.53-.02.06,0,.31.04.02-.02-.45-.09-.18-.01-.49-.15s-.51-.35-.79-.84c-.72-1.26-1.18-2.6-2.27-3.61-1.46-1.37-3.61-1.71-5.48-1.06-3.12,1.09-5.68,3.85-7.19,6.72-1.76,3.35-2.31,7.05-1.68,10.77.23,1.33,1.87,2.08,3.08,1.75,1.41-.39,1.97-1.74,1.75-3.08h0Z"/>
  <path class="st1" d="M601.94,163.21c3.38-.99,6.66-2.41,9.69-4.21,1.12-.67,1.63-2.28.9-3.42s-2.22-1.61-3.42-.9c-1.4.84-2.85,1.59-4.34,2.24-.08.03-.15.07-.23.1-.25.11-.2.09.14-.06-.14.12-.44.18-.61.25-.36.14-.72.28-1.09.41-.78.28-1.57.54-2.37.77-1.25.37-2.17,1.78-1.75,3.08s1.73,2.14,3.08,1.75h0Z"/>
  <path class="st1" d="M582.52,182.88c2.95,2.49,6.44,4.26,10.25,4.96,1.43.26,3.35-.66,3.16-2.41-.56-5.26-1.57-10.44-3.11-15.5-.81-2.67-4.9-2.21-4.91.66,0,.61,0,1.21,0,1.82,0,1.31,1.15,2.56,2.5,2.5s2.5-1.1,2.5-2.5c0-.61,0-1.21,0-1.82l-4.91.66c.72,2.37,1.34,4.78,1.84,7.21s.85,4.69,1.09,6.97l3.16-2.41c-.82-.15-1.63-.34-2.42-.59-.36-.11-.71-.24-1.06-.37-.12-.05-.53-.21-.21-.08-.19-.08-.38-.17-.57-.26-.72-.34-1.41-.72-2.08-1.14-.35-.22-.69-.46-1.03-.7-.1-.07-.3-.22-.09-.06-.2-.15-.39-.31-.58-.48-1-.84-2.57-1.05-3.54,0-.85.93-1.07,2.63,0,3.54h0Z"/>
  <path class="st1" d="M675.67,247.95c5.39,1.53,11.04,2.71,16.62,1.52,4.85-1.04,9.12-3.91,12.73-7.21,7.25-6.64,12.73-15.24,16.31-24.36,2.04-5.19,3.32-10.6,4.02-16.13.17-1.34-1.27-2.5-2.5-2.5-1.49,0-2.33,1.15-2.5,2.5-1.1,8.72-4.19,17.18-8.8,24.64-2.3,3.72-4.97,7.18-8.02,10.32s-6.37,5.93-10.43,7.33c-5.32,1.82-10.85.55-16.09-.93-3.1-.88-4.43,3.95-1.33,4.82h0Z"/>
  <path class="st1" d="M690.53,244.32c-2.52,2.87-5.05,5.96-5.43,9.91-.32,3.32,1.17,7.01,4.32,8.48,3.83,1.79,7.83-.13,10.75-2.72s5.03-5.8,6.84-9.03c2.12-3.77,3.69-7.86,4.64-12.07.3-1.32-.4-2.71-1.75-3.08-1.26-.35-2.78.42-3.08,1.75-.86,3.82-2.21,7.47-4.13,10.88-1.72,3.06-3.85,6.38-6.68,8.54-1.12.85-2.73,1.76-4.04,1.39-1.12-.32-1.52-1.08-1.79-2.17-.31-1.24-.08-2.51.59-3.86.83-1.67,2.08-3.08,3.3-4.48.89-1.01,1-2.54,0-3.54-.91-.91-2.64-1.02-3.54,0h0Z"/>
  <path class="st1" d="M697.01,244.75c-.14.46-.29.93-.45,1.38-.09.24-.18.48-.27.72-.04.1-.1.21-.13.32.04-.14.19-.42.05-.13-.42.91-.86,1.8-1.38,2.65-.25.41-.51.82-.79,1.22-.13.19-.26.37-.4.56-.07.09-.14.18-.2.27-.34.46.24-.29.02-.03-.64.77-1.29,1.51-2.01,2.21-.94.92-.99,2.63,0,3.54s2.54.98,3.54,0c3.21-3.13,5.56-7.08,6.83-11.38.37-1.25-.45-2.78-1.75-3.08s-2.68.4-3.08,1.75h0Z"/>
  <path class="st1" d="M668.75,98.59c-3.71,3.88-5.21,9.08-5.93,14.28s-.87,11.61,3.77,15.3c2.05,1.62,4.6,2.47,7.21,1.98s4.55-2.43,5.69-4.67c2.57-5.03,3.16-11.45,2.79-17.01-.35-5.25-2.04-11.5-7.31-13.84-1.23-.55-2.69-.36-3.42.9-.62,1.06-.34,2.87.9,3.42,3.1,1.37,4.24,4.75,4.68,7.9.64,4.58.15,9.43-1.13,13.86-.42,1.44-.96,3.17-2.22,4.1-1.11.82-2.48.51-3.58-.18-3.43-2.15-2.99-7.05-2.55-10.51.54-4.25,1.58-8.81,4.63-12,2.22-2.33-1.31-5.87-3.54-3.54h0Z"/>
  <path class="st1" d="M675.38,114.38c-1.75-1.12-4.04-.74-5.62.48-1.44,1.11-2.19,2.78-2.45,4.56s-.62,4.09.56,5.69c1.27,1.73,3.29,2.43,5.38,2.05,1.75-.32,3.25-1.69,4.12-3.19.95-1.64,1.32-3.57.93-5.43s-1.86-3.42-3.7-3.87-4.11.18-5.08,2c-1.12,2.13-.03,4.86,2.15,5.77.6.25,1.21.33,1.86.24.46-.06.75-.13,1.18-.37.68-.38.99-.9,1.26-1.61.35-.9.68-1.8,1.01-2.71.19-.51.08-1.15-.13-1.63-.23-.54-.56-.84-1.02-1.2-1.69-1.29-4.16-.66-5.63.64-1.29,1.13-1.76,2.87-2.02,4.49-.11.68-.11,1.31.25,1.93.3.52.9,1.01,1.49,1.15.64.15,1.36.11,1.93-.25.51-.33,1.05-.86,1.15-1.49.12-.74.25-1.48.54-2.18l-.25.6c.12-.28.27-.54.45-.79l-.39.51c.14-.18.3-.34.48-.49l-.51.39c.18-.13.37-.25.58-.34l-.6.25c.21-.08.41-.14.63-.17l-.66.09c.18-.02.35-.02.53,0l-.66-.09c.14.03.27.06.4.11l-.6-.25c.13.06.25.13.36.22l-1.15-2.82c-.35.93-.69,1.85-1.04,2.78l1.15-1.49-.08.04.6-.25c-.08.03-.16.05-.25.07l.66-.09c-.08,0-.16.01-.25,0l.66.09c-.11-.01-.21-.04-.32-.08l.6.25c-.13-.06-.25-.13-.36-.22l.51.39c-.11-.1-.21-.2-.31-.32l.39.51c-.11-.15-.2-.3-.27-.47l.25.6c-.05-.14-.09-.29-.12-.44l.09.66c-.02-.15-.02-.29,0-.44l-.09.66c.02-.12.05-.23.1-.34l-.25.6c.04-.08.09-.16.14-.23l-.39.51c.08-.1.17-.19.27-.28l-.51.39c.13-.1.26-.18.4-.24l-.6.25c.18-.07.36-.12.55-.15l-.66.09c.2-.02.39-.02.59,0l-.66-.09c.24.03.46.09.68.18l-.6-.25c.22.09.42.21.61.35l-.51-.39c.16.13.29.27.42.43l-.39-.51c.14.2.26.41.36.64l-.25-.6c.1.27.17.54.22.82l-.09-.66c.05.42.04.83-.01,1.24l.09-.66c-.07.46-.19.89-.36,1.32l.25-.6c-.19.44-.42.86-.7,1.24l.39-.51c-.24.31-.51.59-.82.84l.51-.39c-.25.19-.52.34-.81.47l.6-.25c-.24.09-.48.16-.74.2l.66-.09c-.25.03-.49.02-.74,0l.66.09c-.25-.04-.48-.1-.72-.19l.6.25c-.23-.1-.43-.21-.63-.36l.51.39c-.13-.11-.25-.23-.36-.36l.39.51c-.11-.14-.19-.28-.27-.44l.25.6c-.09-.21-.14-.42-.18-.65l.09.66c-.1-.86.02-1.76.12-2.61l-.09.66c.08-.61.21-1.21.44-1.79l-.25.6c.15-.35.33-.68.56-.99l-.39.51c.17-.2.35-.38.56-.55l-.51.39c.21-.16.44-.29.68-.4l-.6.25c.24-.1.48-.17.74-.21l-.66.09c.22-.02.42-.02.64,0l-.66-.09c.18.03.34.08.51.15l-.6-.25c.1.05.19.1.28.16,1.1.71,2.81.26,3.42-.9.65-1.24.28-2.67-.9-3.42h0Z"/>
  <path class="st1" d="M705.06,103.5c-5.46-.08-8.23,5.02-9.29,9.67-.58,2.57-.99,5.17-1.32,7.78-.25,2.04-.4,4.24.29,6.22.75,2.14,2.34,3.92,4.6,4.49s4.64,0,6.47-1.3c1.99-1.42,3.21-3.47,4.12-5.7s1.59-4.46,2.01-6.75c.95-5.24-.08-11.22-5.05-14.11-2.79-1.62-5.31,2.7-2.52,4.32,2.52,1.46,3.11,4.5,2.92,7.2-.13,1.86-.7,3.7-1.27,5.47-.46,1.44-.94,2.87-1.78,4.14-.64.96-1.57,1.75-2.68,1.93-.83.13-1.6-.18-1.93-.87-.55-1.16-.42-2.61-.29-3.9.17-1.84.48-3.66.83-5.47.51-2.66,1.21-8.17,4.9-8.11,3.22.05,3.22-4.95,0-5h0Z"/>
  <path class="st1" d="M703.73,121.71c.46-1.47-.47-2.93-1.87-3.38-.85-.27-1.85-.04-2.61.39-.72.41-1.15,1.07-1.59,1.74-.31.47-.59.96-.82,1.48-.3.66-.57,1.32-.68,2.05-.13.88-.13,1.62.04,2.5.26,1.39,1.17,2.69,2.38,3.41s2.7.83,3.95.35c1.48-.57,2.59-1.58,3.13-3.09.28-.77.26-1.63.09-2.42s-.61-1.5-1.13-2.14c-.88-1.07-2.43-1.8-3.82-1.69-1.65.12-3.2,1.06-3.94,2.58s-.83,3.25.04,4.74c.4.69,1.32,1.35,2.16,1.24.95-.12,1.8-.31,2.63-.83s1.41-1.13,1.96-1.9c.97-1.36,1.28-3.17.91-4.79-.34-1.49-2-2.18-3.41-2.06-1.13.1-2.08.51-2.95,1.23-.69.57-1.17,1.36-1.44,2.2-.14.42-.19.88-.18,1.32.03,1.06.59,1.9,1.48,2.43s2.2.69,3.23.32c1.27-.45,2.18-1.32,2.61-2.62s-.48-2.79-1.75-3.08c-1.38-.31-2.63.42-3.08,1.75-.01.05-.03.1-.05.14l.25-.6c-.04.09-.09.17-.15.25l.39-.51c-.08.1-.16.18-.26.26l.51-.39c-.1.07-.21.13-.32.19l.6-.25c-.14.06-.28.1-.43.12l.66-.09c-.15.02-.3.02-.45,0l.66.09c-.12-.02-.24-.05-.35-.1l.6.25c-.09-.04-.17-.09-.26-.15l.51.39s-.08-.06-.11-.1l.73,1.77c0-.14,0-.28.01-.42l-.09.66c.03-.17.07-.32.13-.48l-.25.6c.08-.18.18-.34.29-.5l-.39.51c.14-.18.3-.33.48-.47l-.51.39c.16-.12.33-.21.51-.3l-.6.25c.21-.09.42-.14.64-.18l-.66.09c.17-.02.33-.02.49,0l-.66-.09c.17.03.32.07.48.13l-1.75-1.75c.03.12.05.23.07.35l-.09-.66c.04.3.03.59,0,.88l.09-.66c-.05.33-.14.64-.26.94l.25-.6c-.13.3-.3.58-.49.85l.39-.51c-.22.28-.47.54-.75.76l.51-.39c-.24.18-.49.32-.77.44l.6-.25c-.25.1-.5.17-.77.21l.66-.09h-.09c.72.42,1.44.84,2.16,1.25-.06-.09-.1-.19-.15-.29l.25.6c-.07-.18-.11-.35-.14-.54l.09.66c-.02-.19-.02-.37,0-.56l-.09.66c.03-.24.1-.48.19-.71l-.25.6c.09-.2.19-.39.32-.56l-.39.51c.13-.17.28-.32.45-.46l-.51.39c.15-.11.31-.21.48-.28l-.6.25c.16-.06.31-.1.48-.13l-.66.09c.19-.02.37-.02.55,0l-.66-.09c.18.03.36.08.53.14l-.6-.25c.2.09.39.19.56.32l-.51-.39c.2.15.37.33.53.52l-.39-.51c.13.18.24.36.33.56l-.25-.6c.07.17.12.35.15.53l-.09-.66c.02.19.03.37,0,.55l.09-.66c-.03.17-.07.32-.13.48l.25-.6c-.07.17-.17.33-.28.49l.39-.51c-.13.17-.28.32-.45.46l.51-.39c-.18.13-.36.24-.56.33l.6-.25c-.23.1-.46.16-.7.2l.66-.09c-.22.03-.43.03-.64,0l.66.09c-.19-.03-.36-.08-.54-.15l.6.25c-.16-.07-.3-.16-.44-.27l.51.39c-.17-.14-.31-.28-.44-.45l.39.51c-.15-.2-.26-.41-.36-.64l.25.6c-.12-.29-.19-.59-.23-.9l.09.66c-.03-.31-.03-.63,0-.94l-.09.66c.07-.48.21-.95.4-1.4l-.25.6c.33-.76.78-1.5,1.27-2.16l-.39.51c.05-.05.09-.09.15-.14l-.51.39c.08-.05.16-.1.24-.14l-.6.25c.1-.04.21-.07.32-.09l-.66.09c.06,0,.11,0,.17,0l-.66-.09s.06.01.09.02l-.6-.25s.05.02.07.04l-.51-.39.03.03-.39-.51.02.03-.25-.6v.04c-.02-.22-.05-.44-.08-.66v.04c.03-.22.06-.44.09-.66,0,.04-.01.07-.03.11-.39,1.25.46,2.78,1.75,3.08,1.36.31,2.66-.41,3.08-1.75h0Z"/>
  <path class="st1" d="M198.93,112.32c-4.52.19-7.08,4.81-8.94,8.38s-3.34,7.76-4.08,11.89c-1.47,8.18-.79,17.18,2.91,24.71,1.65,3.37,4.39,6.63,8.16,7.62,4,1.05,7.95-.74,10.6-3.74,2.81-3.18,4.39-7.21,5.36-11.29,1.05-4.4,1.39-9.01.93-13.52-.87-8.56-4.61-20.82-14.42-22.74-1.32-.26-2.7.37-3.08,1.75-.34,1.23.41,2.82,1.75,3.08,6.57,1.28,9.21,9.41,10.32,15.11,1.34,6.86.79,15.02-2.53,21.28-1.23,2.31-3.22,5.08-6.05,5.4-2.66.3-4.71-1.96-5.95-4.03-3.41-5.68-4.16-13.12-3.55-19.59.35-3.71,1.3-7.44,2.75-10.87.75-1.77,1.66-3.49,2.68-5.12.63-1.01,1.76-3.25,3.14-3.31,3.21-.13,3.22-5.13,0-5h0Z"/>
  <path class="st1" d="M204.64,152.65c-1.46-2.37-4.61-2.82-6.93-1.46-2.16,1.27-3.19,3.97-3.59,6.33-.27,1.57-.06,3.19,1.1,4.37.93.94,2.18,1.38,3.48,1.46,2.52.15,4.67-1.64,5.64-3.85,1.83-4.19,2.2-10.9-3.03-12.76-4.4-1.56-9.55,2.5-8.26,7.2.62,2.26,2.65,4.22,4.96,4.7,2.62.54,5.31-.66,6.53-3.08s.76-5.29-1.42-6.98c-2-1.54-5.13-1.6-6.94.3s-1.67,4.84-.09,6.81c1.96,2.44,5.48,1.68,7.59-.09s3.02-5.03,1.61-7.52c-1.32-2.32-4.5-3.63-6.93-2.21-2.19,1.28-2.95,4.28-1.73,6.48.32.57.81,1.08,1.36,1.44.77.49,1.56.56,2.42.44,1.32-.18,2.5-.78,3.49-1.68,1.92-1.76,3.36-6,.55-7.63-2.31-1.35-5.26-.26-6.65,1.88-.69,1.07-.88,2.4-.54,3.63s1.79,2.16,3.08,1.75,2.12-1.72,1.75-3.08c-.07-.27-.06-.19,0,.23,0-.09,0-.19,0-.28-.07.43-.07.51,0,.25-.17.38-.2.44-.08.21.3-.44.02.03-.05.04.07-.07.13-.14.21-.21.2-.17.15-.13-.16.12.08-.05.17-.11.25-.15.24-.12.17-.09-.19.07.05.02.39-.09.42-.11-.43.05-.51.07-.24.06.27.02.19,0-.25-.04.25.08.18.04-.2-.11.22.13.18.08-.14-.15l-.64-1.1c-.13-.83.05.16-.04.22.06-.37.06-.42,0-.14-.03.12-.06.23-.1.34-.1.26-.08.22.05-.1-.05.11-.11.21-.17.31-.06.1-.13.2-.2.3.19-.24.23-.29.11-.16-.12.11-.29.4-.45.44.27-.2.3-.23.07-.07-.1.06-.2.12-.31.18-.25.12-.21.11.11-.04-.11.04-.22.07-.34.1-.28.06-.23.05.14,0-.12,0-.24.01-.36,0l1.26.34c-.07-.03-.47-.27-.09-.02.43.29-.16-.24.18.17l.12.15c-.13-.23-.1-.14.08.25,0-.06-.06-.21-.08-.25-.12-.36.05.61.03-.01-.01-.4,0,.21-.04.25.02-.09.04-.18.07-.27l-.15.34s.14-.23.17-.3c.09-.28-.35.39-.14.19.23-.22-.55.33-.13.09.15-.08.35-.12-.19.07.37-.13-.13.13-.18,0-.02-.05.32.02.33,0-.04.11-.56-.13-.18,0,.49.16-.39-.27.02,0,0,0,.29.15.29.18,0-.1-.39-.34-.05-.01s.08-.05-.01-.05c.04,0,.15.31.17.29-.03.03-.17-.62-.06-.13.01.05.1.26.08.33.09-.33-.07-.33-.04-.08.05.53.14-.37-.01.1-.04.12-.07.25-.11.37.15-.51.05-.13-.03.02s-.17.28-.27.42c.07-.09.33-.34.01-.05-.1.09-.19.19-.28.28-.33.31-.04.02.04-.02-.11.06-.23.14-.34.21-.47.32.27-.12-.2.09-.36.16-.15.06.03.04-.09,0-.6-.09-.31.02.39.15-.4-.18.15.04.46.19-.04-.07-.06-.07-.01,0,.55.36.2.12-.31-.21.16.08.14.18,0,.01-.12-.23-.14-.24.15.39.18.45.1.21l-.04-.14c-.14-.35.03.16.01.24.02-.09,0-.26-.02-.36s.02-.45-.01-.02c-.04.45.02,0,.04-.08.07-.31.13.1-.09.21,0,0,.14-.21.14-.24-.03.28-.34.38-.12.19-.32.23-.37.27-.15.12l.13-.08c0,.18-.53.15-.18.08.08-.02.54-.18.11-.04-.49.16.04-.06.05.02h.08c.27.02.21.01-.2-.03,0,.01.31.08.3.08.35.07-.14.1-.16-.08,0,0,.24.13.28.15.44.19-.31-.35,0-.02-.02-.02.22.22.22.22-.19.08-.25-.53-.07-.07.13.33.06.05.04.06l-.07-.15c.03.11.06.22.08.33-.06.02,0-.67-.04-.16,0,.04,0,.34-.01.34-.13,0,.14-.56,0-.16-.03.11-.06.22-.1.33l.12-.28c.02.1-.5.81-.25.48.21-.29-.03,0-.08.07l-.06.06c-.2.18-.16.16.11-.06-.04.06-.24.15-.29.19-.26.2.06.07.13-.03-.04.05-.25.08-.33.11-.46.18.49.03,0,.01-.11,0-.22,0-.33,0-.52.01.37.14.09,0-.1-.04-.22-.06-.32-.09-.48-.13,0,.06.05.03-.02.02-.58-.29-.59-.35,0,.03.37.34.1.07-.12-.12-.24-.24-.37-.36-.36-.35.09.11.07.11-.07-.01-.19-.3-.23-.36-.05-.08-.27-.38-.06-.08s-.01-.06-.04-.17c-.01-.04-.08-.32-.07-.32.08,0,0,.66.04.17,0,.02,0-.33.01-.34-.03,0-.08.57.04.04.08-.39-.03.15-.09.2.03-.02.1-.2.13-.25.04-.06.31-.45.05-.1s.03-.02.08-.07c.07-.07.14-.13.21-.2.23-.22.05.13-.16.13.07,0,.58-.3.63-.36-.18.22-.48.17-.19.09.09-.03.19-.06.28-.09.11-.03.25-.04.36-.08.3-.12-.66.03-.16.02.19,0,.39,0,.58,0,.41,0-.19,0-.24-.04.07.05.33.07.42.1.06.02.2.09.27.09-.44-.03-.42-.21-.21-.07.57.38-.26-.32.13.08.09.1.25.21.31.33-.03-.06-.28-.46-.07-.06.06.11.12.21.18.32.28.5-.12-.47.02.08.04.17.23.56.18.72l-.04-.29c.01.09.02.19.03.29,0,.13.02.26.02.38,0,.29,0,.58-.02.88,0,.13-.02.26-.03.39-.05.66.1-.53-.01.11-.1.54-.2,1.08-.35,1.61-.08.29-.17.56-.27.84-.04.13-.21.39.03-.06-.09.17-.17.35-.26.52-.06.11-.13.22-.2.32-.3.49.33-.3-.08.09-.08.08-.2.17-.27.26.27-.32.14-.12-.05,0-.37.24.13-.11.18-.07,0,0-.44.11-.45.12.17-.19.54-.02.21-.04-.11,0-.35-.05-.46-.02.39-.12.48.11.22,0-.55-.21.04-.03.05.04,0,.02-.22-.15-.25-.15.31.25.37.29.19.11l.21.29s-.12-.24-.14-.25c.16.1.18.85.15.34-.02-.44,0-.12-.02,0,.04-.22.09-.43.14-.65.08-.33.17-.65.27-.97.05-.16.1-.32.16-.48.09-.25.16-.36,0-.06.14-.3.31-.58.48-.87-.26.44-.08.09.04-.03.07-.07.14-.14.21-.21.19-.16.2-.17.02-.03l-.13.1c.07-.04.14-.08.21-.12.2-.1-.5.28,0,.01.17-.09.38.03.06-.04-.39-.08.08.05.22,0,.27-.09-.46-.16-.2-.04.11.05.61.08.2.04l-.16-.06c.17.11.17.1,0-.03-.17-.14-.18-.14-.03,0-.22-.32-.26-.36-.12-.14.69,1.11,2.27,1.64,3.42.9s1.63-2.23.9-3.42h0Z"/>
  <path class="st1" d="M348.48,172.29c-3.81-.25-7.66.83-10.61,3.28s-4.08,6.12-3.51,9.76c.53,3.39,3.08,6.45,6.53,7.11,3.79.72,7.5-1,10.15-3.65s5.03-7.11,3.52-10.95c-1.6-4.07-6.17-6.26-10.26-4.46-3.83,1.69-5.69,6.35-3.86,10.14,1.66,3.44,6.39,5.46,9.7,3.04,1.71-1.25,2.73-3.18,2.81-5.3s-1-4.14-2.83-5.06c-4.01-2.01-9.32,1.6-8.24,6.15v-1.33c-.24,1.33.08,2.57,1.18,3.42,1.04.81,2.43.88,3.57.2,2.16-1.29,1.85-4.56-.2-5.77-1.35-.8-3.05-.67-4.36.14-1.42.88-2.42,2.75-1.75,4.4.54,1.33,1.61,2.02,3.08,1.75,2.61-.49,4.56-2.45,5.49-4.86.38-.98-.25-2.35-1.15-2.82-.96-.51-2.25-.44-3.03.39-1.66,1.78-3.24,3.64-4.74,5.57-.67.86-1.04,2.02-.39,3.03s1.67,1.32,2.82,1.15c2.33-.35,4.45-1.46,6.21-3.01.99-.86.95-2.66,0-3.54-1.05-.97-2.48-.92-3.54,0-.02.02-.6.48-.23.21-.16.12-.32.23-.49.34-.37.24-.75.44-1.15.63.32-.15-.02.01-.17.06-.19.07-.37.13-.57.19-.46.13-.92.23-1.39.3l2.43,4.18c1.49-1.93,3.07-3.79,4.74-5.57l-4.18-2.43c.18-.47,0-.02-.06.08-.09.15-.18.3-.28.45.2-.29.06-.09-.09.06-.12.13-.26.24-.39.36.18-.15.19-.13,0-.01-.15.09-.31.17-.46.26-.22.13.34-.07-.09.03-.21.04-.41.11-.62.15l3.08,1.75c-.07-.16-.05-.45-.05-.05s.02.65-.18,1c.18-.33-.15.18-.17.2.32-.34-.42.26-.15.09.46-.27-.54.09.09-.05.48-.11-.54.04-.21.04-.07,0-.33-.04-.42-.09-.31-.18-.53-.3-.74-.61.31.47-.58.65-.09-1.2l3.49.93c.1-.33.12-.66.04-1l-.04-.33c-.06-.27-.06-.21.01.2.01-.01-.01-.32,0-.3.1.14-.11.56-.01.22.14-.49-.32.47-.03.05l.08-.13c.15-.22.11-.17-.12.14,0,0,.23-.24.21-.23l.11-.11c.16-.14.16-.14,0,0l-.13.1c.09-.06.18-.12.27-.17.03-.02.28-.15.28-.15.03.11-.52.17-.15.07.04,0,.46-.1.46-.12-.02.05-.65.02-.19.03.05,0,.44.03.47,0-.23.16-.52-.13-.21-.01.55.21-.02-.03-.02-.03,0,.04.3.12.27.17,0,0-.43-.33-.14-.07.36.32-.1-.31-.04-.06,0,.03.18.35.19.35-.21-.02-.15-.5-.09-.15.1.61-.03,0,.02-.04-.02.02,0,.35.01.4.04.49-.15-.02.04-.1-.03.01-.18.69-.18.72-.02.3.29-.51.03-.06-.06.1-.1.2-.16.29-.03.05-.27.52-.08.16.17-.33-.11.09-.18.18-.34.4.06-.07.07-.02,0,.02-.29.19-.27.18l-.14.08c-.2.09-.2.1,0,0l.15-.07c-.1.04-.21.06-.32.09-.22.06-.33-.06.08,0-.11-.01-.27,0-.39,0-.57.02.43.18-.1-.03-.13-.05-.68-.25-.14,0-.27-.12-.51-.29-.77-.44-.3-.18.36.4-.04-.05-.09-.1-.19-.19-.28-.28-.31-.31-.05-.04,0,.04-.12-.16-.23-.33-.33-.51-.07-.12-.12-.24-.18-.36.26.5.01-.02-.02-.15s-.06-.26-.09-.39c.12.62.02.01.03-.13,0-.13.02-.27.02-.4-.03.53-.04.21,0,.08.05-.15.11-.32.14-.48.07-.36-.27.49.01-.05.06-.12.12-.24.19-.35.11-.18.33-.49.06-.15.21-.26.45-.49.69-.72.33-.31.05-.03-.03.02.14-.09.28-.18.42-.27s.29-.16.44-.23c-.1.05-.46.14-.04.04.16-.04.33-.07.48-.12.19-.04.13-.03-.17.02.1,0,.2-.02.3-.02.17,0,.33,0,.5.01-.1,0-.52-.12-.07,0,.16.04.32.08.48.13.15.05.52.25.05,0,.24.12.46.26.69.4.53.31-.3-.34.13.1.14.14.28.29.43.43.09.09.25.37-.01-.04.09.14.19.27.27.42s.16.29.23.44c-.05-.09-.15-.47-.03-.04.03.12.07.26.11.38.2.56.04-.47.03.13,0,.17,0,.34,0,.51,0,.68.11-.33-.03.33-.09.41-.21.82-.36,1.22.04-.1.17-.36-.05.11-.07.15-.15.31-.23.46-.17.33-.36.66-.56.97-.07.12-.15.23-.23.34-.1.15-.37.5-.1.16-.41.52-.87,1.01-1.36,1.46-.23.21-.47.42-.72.61.4-.31.02-.03-.08.04-.17.12-.34.23-.52.34-.26.16-.53.31-.81.45,0,0-.61.28-.25.13s-.25.09-.26.09c-.25.09-.5.16-.75.23-.19.05-.38.08-.57.12.41-.09.2-.02-.1,0-.25.01-.51,0-.76,0-.61,0,.51.14-.09,0-.12-.03-.25-.05-.37-.08s-.25-.08-.37-.11c-.59-.14.41.25-.13-.04-.28-.15-.54-.32-.81-.48.43.25.2.17.08.06-.13-.12-.26-.24-.38-.37-.08-.08-.15-.18-.24-.27.36.35.16.23.07.08-.16-.25-.3-.51-.45-.76-.22-.38,0,.03.03.11-.07-.17-.13-.34-.18-.51-.07-.22-.33-.85-.26-1.06,0,.03.05.62.02.12-.01-.18-.03-.37-.03-.55,0-.34.06-.69.03-1.02-.03-.36-.13.6,0,.02.04-.18.07-.36.11-.54.07-.3.18-.59.27-.88.18-.54-.21.27,0,0,.11-.14.17-.34.26-.49.08-.13.16-.26.24-.39.06-.08.45-.53.1-.15.24-.26.46-.53.72-.77.15-.15.31-.28.47-.42.39-.34-.32.18.16-.12.3-.19.59-.38.9-.56.15-.09.31-.17.47-.24.07-.03.67-.29.38-.18-.35.13.31-.11.3-.1.2-.07.41-.14.61-.2.34-.1.69-.19,1.05-.26.21-.04.43-.08.64-.12-.45.08,0,0,.19-.02.79-.07,1.58-.08,2.37-.03,1.31.08,2.56-1.21,2.5-2.5-.06-1.43-1.1-2.41-2.5-2.5h0Z"/>
  <path class="st1" d="M330.21,113.55c5.19-18.14,20.65-32.1,38.41-37.66,19.68-6.16,41.04-1.24,57.86,10.11,4.77,3.22,9.16,6.98,13.12,11.16,3.6,3.8,9.03,9.32,7.68,15.09-.74,3.13,4.08,4.47,4.82,1.33,1.49-6.35-2.11-12.05-6.05-16.71-3.6-4.25-7.64-8.1-12.03-11.53-8.88-6.93-19.09-12.18-30.04-14.95-10.61-2.69-21.83-3.03-32.51-.48-10.03,2.39-19.43,7.24-27.32,13.87-8.83,7.42-15.58,17.32-18.76,28.44-.89,3.1,3.94,4.42,4.82,1.33h0Z"/>
  <path class="st1" d="M409.68,156.83c2.54,5.84,6.33,11.12,11.04,15.41,1.73,1.58,4.01.35,4.27-1.77.87-7.02,1.14-14.09.81-21.15l-3.76,2.16c2.41,1.21,4.83,2.42,7.24,3.63s5.27,3.15,7.58.86c1.71-1.69,1.57-4.53,1.81-6.74.3-2.75.6-5.51.9-8.26l-4.27,1.77c1.78,1.95,3.82,4,6.48,4.61s5.56-.06,7.21-2.31,1.41-5.63,1.31-8.37c-.11-3.23-.48-6.44-1.04-9.63-.23-1.33-1.86-2.08-3.08-1.75-1.4.39-1.98,1.74-1.75,3.08.4,2.28.67,4.57.8,6.87.11,1.96.38,4.19-.01,6.12-.23,1.17-1.2,1.39-2.28,1.12-1.7-.41-3-2.07-4.11-3.29-1.6-1.76-4.05-.22-4.27,1.77-.23,2.11-.46,4.21-.69,6.32-.11.97-.21,1.94-.32,2.91-.09.8-.32,1.69-.33,2.33,0,.46,1.26-.28,1.06-.5-.27-.29-1.03-.51-1.39-.69-.88-.44-1.76-.88-2.63-1.32-1.9-.95-3.8-1.91-5.7-2.86-1.6-.8-3.86.15-3.76,2.16.33,7.06.06,14.13-.81,21.15l4.27-1.77c-4.43-4.04-7.87-8.9-10.26-14.4-.54-1.24-2.35-1.52-3.42-.9-1.28.75-1.44,2.18-.9,3.42h0Z"/>
  <path class="st1" d="M554.52,112.31c7.52,17.46,7.15,38.28-.46,55.65-2.18,4.98-4.94,9.7-8.21,14.04-.81,1.08-.17,2.8.9,3.42,1.28.75,2.61.18,3.42-.9,12.38-16.42,17.08-37.99,13.64-58.17-.97-5.72-2.68-11.24-4.97-16.57-.53-1.24-2.36-1.52-3.42-.9-1.28.75-1.43,2.18-.9,3.42h0Z"/>
  <path class="st1" d="M707.07,77.23c18.8,8.69,32.19,26.18,35.58,46.63.99,5.96,1.09,12.16.27,18.15-.18,1.34.32,2.68,1.75,3.08,1.17.32,2.89-.4,3.08-1.75,3.1-22.73-5.45-45.97-23.08-60.79-4.59-3.85-9.63-7.12-15.07-9.64-1.22-.57-2.69-.35-3.42.9-.63,1.08-.33,2.85.9,3.42h0Z"/>
  <path class="st1" d="M326.4,269.62h.79c.34.01.67-.06.96-.22.31-.1.58-.27.8-.52.24-.23.42-.49.52-.8.16-.3.23-.62.22-.96l-.09-.66c-.12-.42-.33-.79-.64-1.1l-.51-.39c-.39-.23-.81-.34-1.26-.34h-.79c-.34-.01-.67.06-.96.22-.31.1-.58.27-.8.52-.24.23-.42.49-.52.8-.16.3-.23.62-.22.96l.09.66c.12.42.33.79.64,1.1l.51.39c.39.23.81.34,1.26.34h0Z"/>
  <path class="st1" d="M342.94,283.8h.79c.34.01.67-.06.96-.22.31-.1.58-.27.8-.52.24-.23.42-.49.52-.8.16-.3.23-.62.22-.96l-.09-.66c-.12-.42-.33-.79-.64-1.1l-.51-.39c-.39-.23-.81-.34-1.26-.34h-.79c-.34-.01-.67.06-.96.22-.31.1-.58.27-.8.52-.24.23-.42.49-.52.8-.16.3-.23.62-.22.96l.09.66c.12.42.33.79.64,1.1l.51.39c.39.23.81.34,1.26.34h0Z"/>
  <path class="st1" d="M364.99,287.74c3.22,0,3.22-5,0-5s-3.22,5,0,5h0Z"/>
</svg>